SplineFontDB: 3.2
FontName: OmeBhatkhandeBase
FullName: Ome Bhatkhande Base
FamilyName: Ome Bhatkhande Base
Weight: Regular
Copyright: Omenad 2006-2017
Version: 1.01 Oct 5, 2022
ItalicAngle: 0
UnderlinePosition: -292
UnderlineWidth: 150
Ascent: 1638
Descent: 410
InvalidEm: 0
sfntRevision: 0x00010000
LayerCount: 2
Layer: 0 1 "Back" 1
Layer: 1 1 "Fore" 0
XUID: [1021 365 -898263510 12592035]
StyleMap: 0x0000
FSType: 8
OS2Version: 1
OS2_WeightWidthSlopeOnly: 0
OS2_UseTypoMetrics: 0
CreationTime: 1192029071
ModificationTime: 1725678452
PfmFamily: 17
TTFWeight: 400
TTFWidth: 5
LineGap: 0
VLineGap: 0
Panose: 2 0 0 0 0 0 0 0 0 0
OS2TypoAscent: 3650
OS2TypoAOffset: 0
OS2TypoDescent: -3000
OS2TypoDOffset: 0
OS2TypoLinegap: 205
OS2WinAscent: 3650
OS2WinAOffset: 0
OS2WinDescent: 3000
OS2WinDOffset: 0
HheadAscent: 3650
HheadAOffset: 0
HheadDescent: -3000
HheadDOffset: 0
OS2SubXSize: 1434
OS2SubYSize: 1331
OS2SubXOff: 0
OS2SubYOff: 283
OS2SupXSize: 1000
OS2SupYSize: 2250
OS2SupXOff: 0
OS2SupYOff: 2800
OS2StrikeYSize: 102
OS2StrikeYPos: 530
OS2Vendor: 'OMND'
OS2CodePages: 6000019f.dff70000
OS2UnicodeRanges: a00002af.500078fb.00000000.00000000
Lookup: 258 0 0 "'kern' Horizontal Kerning in Latin lookup 0" { "'kern' Horizontal Kerning in Latin lookup 0 subtable"  } ['kern' ('latn' <'dflt' > ) ]
MarkAttachClasses: 1
DEI: 91125
ShortTable: maxp 16
  1
  0
  653
  132
  6
  0
  0
  0
  0
  0
  0
  0
  0
  0
  0
  0
EndShort
LangName: 1055 "" "" "Normal"
LangName: 1053 "" "" "Normal"
LangName: 2058 "" "" "Normal"
LangName: 1034 "" "" "Normal"
LangName: 3082 "" "" "Normal"
LangName: 1060 "" "" "Navadno"
LangName: 1051 "" "" "Norm+AOEA-lne"
LangName: 1049 "" "" "+BB4EMQRLBEcEPQRLBDkA"
LangName: 1046 "" "" "Normal"
LangName: 2070 "" "" "Normal"
LangName: 1045 "" "" "Normalny"
LangName: 1044 "" "" "Normal"
LangName: 1040 "" "" "Normale"
LangName: 1038 "" "" "Norm+AOEA-l"
LangName: 1032 "" "" "+A5oDsQO9A78DvQO5A7oDrAAA"
LangName: 1031 "" "" "Standard"
LangName: 1036 "" "" "Normal"

StartChar: .notdef
Encoding: 65536 -1 0
Width: 1582
Flags: W
LayerCount: 2
Fore
SplineSet
279 0 m 1,0,-1
 279 1280 l 1,1,-1
 1303 1280 l 1,2,-1
 1303 0 l 1,3,-1
 279 0 l 1,0,-1
311 32 m 1,4,-1
 1271 32 l 1,5,-1
 1271 1248 l 1,6,-1
 311 1248 l 1,7,-1
 311 32 l 1,4,-1
EndSplineSet
Validated: 1
EndChar

StartChar: exclam
Encoding: 33 33 4
Width: 0
Flags: W
LayerCount: 2
Fore
SplineSet
8925 -2000 m 1,0,-1
 9097 -2000 l 1,1,2
 8741 -2191 8741 -2191 8265 -2319 c 0,3,4
 7586 -2502 7586 -2502 6664 -2601 c 128,-1,5
 5742 -2700 5742 -2700 4752 -2700 c 0,6,7
 3304 -2700 3304 -2700 2108.5 -2505.5 c 128,-1,8
 913 -2311 913 -2311 396 -2000 c 1,9,-1
 594 -2000 l 1,10,11
 913 -2155 913 -2155 1465 -2255.5 c 128,-1,12
 2017 -2356 2017 -2356 2864 -2405.5 c 128,-1,13
 3711 -2455 3711 -2455 4631 -2455 c 0,14,15
 5632 -2455 5632 -2455 6450 -2413 c 0,16,17
 7095 -2380 7095 -2380 7485.5 -2333 c 128,-1,18
 7876 -2286 7876 -2286 8235.5 -2207 c 128,-1,19
 8595 -2128 8595 -2128 8925 -2000 c 1,0,-1
EndSplineSet
Validated: 1
EndChar

StartChar: numbersign
Encoding: 35 35 6
Width: 7
Flags: W
LayerCount: 2
Fore
SplineSet
4273 -1200 m 1,0,-1
 4351 -1200 l 1,1,2
 4189 -1350 4189 -1350 3973 -1451 c 0,3,4
 3664 -1594 3664 -1594 3245 -1672 c 128,-1,5
 2826 -1750 2826 -1750 2376 -1750 c 0,6,7
 1718 -1750 1718 -1750 1174.5 -1597.5 c 128,-1,8
 631 -1445 631 -1445 396 -1200 c 1,9,-1
 486 -1200 l 1,10,11
 631 -1322 631 -1322 882 -1400.5 c 128,-1,12
 1133 -1479 1133 -1479 1518 -1518 c 128,-1,13
 1903 -1557 1903 -1557 2321 -1557 c 0,14,15
 2776 -1557 2776 -1557 3148 -1524 c 0,16,17
 3441 -1498 3441 -1498 3618.5 -1461.5 c 128,-1,18
 3796 -1425 3796 -1425 3959.5 -1362.5 c 128,-1,19
 4123 -1300 4123 -1300 4273 -1200 c 1,0,-1
EndSplineSet
Validated: 1
EndChar

StartChar: dollar
Encoding: 36 36 7
Width: 7
Flags: W
LayerCount: 2
Fore
SplineSet
5823 -1200 m 1,0,-1
 5933 -1200 l 1,1,2
 5707 -1370 5707 -1370 5403 -1485 c 0,3,4
 4972 -1648 4972 -1648 4385 -1736.5 c 128,-1,5
 3798 -1825 3798 -1825 3168 -1825 c 0,6,7
 2246 -1825 2246 -1825 1485.5 -1651.5 c 128,-1,8
 725 -1478 725 -1478 396 -1200 c 1,9,-1
 522 -1200 l 1,10,11
 725 -1339 725 -1339 1076 -1428.5 c 128,-1,12
 1427 -1518 1427 -1518 1966 -1562 c 128,-1,13
 2505 -1606 2505 -1606 3091 -1606 c 0,14,15
 3728 -1606 3728 -1606 4248 -1569 c 0,16,17
 4659 -1539 4659 -1539 4907.5 -1497 c 128,-1,18
 5156 -1455 5156 -1455 5384.5 -1384.5 c 128,-1,19
 5613 -1314 5613 -1314 5823 -1200 c 1,0,-1
EndSplineSet
Validated: 1
EndChar

StartChar: percent
Encoding: 37 37 8
Width: 7
Flags: W
LayerCount: 2
Fore
SplineSet
7374 -1200 m 1,0,-1
 7515 -1200 l 1,1,2
 7224 -1370 7224 -1370 6834 -1485 c 0,3,4
 6279 -1648 6279 -1648 5524.5 -1736.5 c 128,-1,5
 4770 -1825 4770 -1825 3960 -1825 c 0,6,7
 2775 -1825 2775 -1825 1797 -1651.5 c 128,-1,8
 819 -1478 819 -1478 396 -1200 c 1,9,-1
 558 -1200 l 1,10,11
 819 -1339 819 -1339 1270.5 -1428.5 c 128,-1,12
 1722 -1518 1722 -1518 2415 -1562 c 128,-1,13
 3108 -1606 3108 -1606 3861 -1606 c 0,14,15
 4680 -1606 4680 -1606 5349 -1569 c 0,16,17
 5877 -1539 5877 -1539 6196.5 -1497 c 128,-1,18
 6516 -1455 6516 -1455 6810 -1384.5 c 128,-1,19
 7104 -1314 7104 -1314 7374 -1200 c 1,0,-1
EndSplineSet
Validated: 1
EndChar

StartChar: ampersand
Encoding: 38 38 9
Width: 7
Flags: W
LayerCount: 2
Fore
SplineSet
10475 -1200 m 1,0,-1
 10679 -1200 l 1,1,2
 10259 -1391 10259 -1391 9695 -1519 c 0,3,4
 8894 -1702 8894 -1702 7804 -1801 c 128,-1,5
 6714 -1900 6714 -1900 5544 -1900 c 0,6,7
 3832 -1900 3832 -1900 2419.5 -1705.5 c 128,-1,8
 1007 -1511 1007 -1511 396 -1200 c 1,9,-1
 630 -1200 l 1,10,11
 1007 -1355 1007 -1355 1659 -1455.5 c 128,-1,12
 2311 -1556 2311 -1556 3312 -1605.5 c 128,-1,13
 4313 -1655 4313 -1655 5401 -1655 c 0,14,15
 6584 -1655 6584 -1655 7550 -1613 c 0,16,17
 8313 -1580 8313 -1580 8774.5 -1533 c 128,-1,18
 9236 -1486 9236 -1486 9660.5 -1407 c 128,-1,19
 10085 -1328 10085 -1328 10475 -1200 c 1,0,-1
EndSplineSet
Validated: 1
EndChar

StartChar: quotesingle
Encoding: 39 39 10
Width: 1582
VWidth: 575
Flags: W
LayerCount: 2
Back
SplineSet
1210 1169 m 1,0,-1
 942 1169 l 1,1,2
 942 1139 942 1139 944 1108 c 0,3,4
 946 1086 946 1086 950 1028 c 2,5,-1
 959 889 l 2,6,7
 961 858 961 858 961 839 c 0,8,9
 961 646 961 646 865 507 c 0,10,11
 826 450 826 450 826 402 c 0,12,13
 826 363 826 363 851 336 c 0,14,15
 926 253 926 253 998 204 c 2,16,-1
 1157 95 l 2,17,18
 1210 59 1210 59 1210 -1 c 0,19,20
 1210 -50 1210 -50 1169 -50 c 0,21,22
 1143 -50 1143 -50 1113 -25 c 2,23,-1
 936 122 l 1,24,-1
 763 274 l 2,25,26
 692 336 692 336 601 448 c 0,27,28
 590 461 590 461 555 510 c 0,29,30
 518 556 518 556 456 656 c 0,31,32
 448 673 448 673 443 689 c 2,33,-1
 434 747 l 1,34,35
 434 859 434 859 520 859 c 0,36,37
 548 859 548 859 605 833.5 c 128,-1,38
 662 808 662 808 691 808 c 0,39,40
 715 808 715 808 730 816 c 1,41,42
 773 879 773 879 773 994 c 0,43,44
 773 1061 773 1061 763 1115 c 0,45,46
 761 1144 761 1144 753 1169 c 1,47,-1
 375 1169 l 1,48,-1
 375 1325 l 1,49,-1
 1210 1325 l 1,50,-1
 1210 1169 l 1,0,-1
EndSplineSet
Fore
SplineSet
221.461914062 1448.62304688 m 5,0,-1
 990.530273438 1448.62304688 l 5,1,-1
 1203.90625 1448.62304688 l 5,2,-1
 1288.3671875 1439.73242188 l 5,3,-1
 1315.0390625 1404.16992188 l 5,4,-1
 1350.60351562 1324.15429688 l 5,5,-1
 1150.5625 1324.15429688 l 5,6,-1
 1150.5625 -85.0185546875 l 5,7,-1
 1132.78027344 -76.1279296875 l 6,8,9
 1093.33886719 -56.171875 1093.33886719 -56.171875 1088.32714844 -36.119140625 c 6,10,-1
 1083.8828125 -18.337890625 l 5,11,-1
 1079.4375 -0.5576171875 l 5,12,-1
 1074.99121094 17.224609375 l 5,13,-1
 1048.3203125 106.131835938 l 6,14,15
 1021 197 1021 197 919.404296875 301.725585938 c 4,16,17
 768 457 768 457 554.885742188 559.555664062 c 5,18,-1
 403.745117188 612.899414062 l 5,19,-1
 372.627929688 621.790039062 l 5,20,-1
 368.182617188 621.790039062 l 5,21,-1
 363.737304688 621.790039062 l 5,22,-1
 359.291992188 626.235351562 l 5,23,-1
 314.837890625 639.572265625 l 5,24,-1
 288.166015625 675.133789062 l 5,25,-1
 270.385742188 697.361328125 l 5,26,-1
 248.159179688 732.923828125 l 5,27,-1
 203.705078125 808.494140625 l 5,28,29
 559.40234375 1038.25976562 559.40234375 1038.25976562 683.801757812 1088.54980469 c 6,30,-1
 892.733398438 1173.01269531 l 5,31,-1
 928.295898438 1186.34960938 l 5,32,-1
 946.076171875 1190.79394531 l 5,33,-1
 999.419921875 1213.02050781 l 6,34,35
 1017.20214844 1220.08007812 1017.20214844 1220.08007812 1017.20214844 1275.25488281 c 6,36,-1
 1017.20214844 1279.70019531 l 5,37,-1
 1017.20214844 1284.14550781 l 5,38,-1
 1017.20214844 1288.58984375 l 5,39,-1
 1012.75585938 1297.48242188 l 5,40,-1
 1012.75585938 1324.15429688 l 5,41,-1
 528.190429688 1324.15429688 l 5,42,-1
 359.268554688 1324.15429688 l 5,43,-1
 283.698242188 1328.59960938 l 5,44,-1
 257.025390625 1368.60742188 l 5,45,-1
 221.461914062 1448.62304688 l 5,0,-1
448.19921875 759.595703125 m 5,46,47
 519.32421875 746.259765625 519.32421875 746.259765625 621.56640625 675.133789062 c 4,48,49
 719.364257812 617.344726562 719.364257812 617.344726562 817.161132812 523.9921875 c 260,50,51
 914.959960938 430.640625 914.959960938 430.640625 1012.75585938 301.725585938 c 5,52,-1
 1012.75585938 1039.65234375 l 5,53,54
 794.935546875 964.08203125 794.935546875 964.08203125 608.232421875 857.393554688 c 6,55,-1
 554.885742188 830.720703125 l 5,56,-1
 492.65234375 795.159179688 l 5,57,-1
 448.19921875 759.595703125 l 5,46,47
577.088867188 346.178710938 m 6,58,-1
 603.76171875 350.625 l 5,59,-1
 634.87890625 346.178710938 l 6,60,61
 728 333 728 333 732.67578125 221.709960938 c 4,62,63
 737 115.002929688 737 115.002929688 630.432617188 97.2412109375 c 6,64,-1
 603.76171875 92.7958984375 l 5,65,-1
 572.645507812 97.2412109375 l 6,66,67
 480 110 480 110 474.845703125 221.709960938 c 4,68,69
 470 328 470 328 577.088867188 346.178710938 c 6,58,-1
EndSplineSet
EndChar

StartChar: parenleft
Encoding: 40 40 11
Width: 791
Flags: W
LayerCount: 2
Fore
SplineSet
604 -439 m 1,0,1
 540 -380 540 -380 495 -334 c 128,-1,2
 450 -288 450 -288 415 -245 c 128,-1,3
 380 -202 380 -202 352.5 -159 c 128,-1,4
 325 -116 325 -116 298 -65 c 0,5,6
 149 216 149 216 149 546 c 0,7,8
 149 777 149 777 229 984 c 0,9,10
 257 1060 257 1060 290 1121.5 c 128,-1,11
 323 1183 323 1183 366 1240 c 128,-1,12
 409 1297 409 1297 466.5 1356.5 c 128,-1,13
 524 1416 524 1416 604 1488 c 1,14,-1
 642 1435 l 1,15,16
 587 1369 587 1369 547 1316 c 128,-1,17
 507 1263 507 1263 477.5 1212.5 c 128,-1,18
 448 1162 448 1162 426.5 1110 c 128,-1,19
 405 1058 405 1058 384 994 c 0,20,21
 356 894 356 894 340.5 784.5 c 128,-1,22
 325 675 325 675 325 546 c 0,23,24
 325 286 325 286 388 69 c 0,25,26
 409 -1 409 -1 430.5 -56.5 c 128,-1,27
 452 -112 452 -112 480.5 -165 c 128,-1,28
 509 -218 509 -218 548 -273.5 c 128,-1,29
 587 -329 587 -329 642 -396 c 1,30,-1
 604 -439 l 1,0,1
EndSplineSet
Validated: 1
EndChar

StartChar: parenright
Encoding: 41 41 12
Width: 791
Flags: W
LayerCount: 2
Fore
SplineSet
149 -396 m 1,0,1
 204 -329 204 -329 243 -273.5 c 128,-1,2
 282 -218 282 -218 310.5 -165 c 128,-1,3
 339 -112 339 -112 360.5 -56.5 c 128,-1,4
 382 -1 382 -1 402 69 c 0,5,6
 466 286 466 286 466 546 c 0,7,8
 466 675 466 675 450.5 784.5 c 128,-1,9
 435 894 435 894 405 994 c 0,10,11
 386 1058 386 1058 364.5 1109 c 128,-1,12
 343 1160 343 1160 313.5 1211.5 c 128,-1,13
 284 1263 284 1263 244 1316 c 128,-1,14
 204 1369 204 1369 149 1435 c 1,15,-1
 187 1488 l 1,16,17
 267 1416 267 1416 324.5 1355.5 c 128,-1,18
 382 1295 382 1295 425 1238 c 128,-1,19
 468 1181 468 1181 501 1119.5 c 128,-1,20
 534 1058 534 1058 562 984 c 0,21,22
 642 777 642 777 642 544 c 0,23,24
 642 357 642 357 594 184 c 128,-1,25
 546 11 546 11 452 -138 c 0,26,27
 427 -175 427 -175 403.5 -209 c 128,-1,28
 380 -243 380 -243 349.5 -276.5 c 128,-1,29
 319 -310 319 -310 280 -350 c 128,-1,30
 241 -390 241 -390 187 -439 c 1,31,-1
 149 -396 l 1,0,1
EndSplineSet
Validated: 1
EndChar

StartChar: asterisk
Encoding: 42 42 13
Width: 7
Flags: W
LayerCount: 2
Fore
SplineSet
12026 -1200 m 1,0,-1
 12261 -1200 l 1,1,2
 11776 -1391 11776 -1391 11126 -1519 c 0,3,4
 10201 -1702 10201 -1702 8943.5 -1801 c 128,-1,5
 7686 -1900 7686 -1900 6336 -1900 c 0,6,7
 4361 -1900 4361 -1900 2731 -1705.5 c 128,-1,8
 1101 -1511 1101 -1511 396 -1200 c 1,9,-1
 666 -1200 l 1,10,11
 1101 -1355 1101 -1355 1853.5 -1455.5 c 128,-1,12
 2606 -1556 2606 -1556 3761 -1605.5 c 128,-1,13
 4916 -1655 4916 -1655 6171 -1655 c 0,14,15
 7536 -1655 7536 -1655 8651 -1613 c 0,16,17
 9531 -1580 9531 -1580 10063.5 -1533 c 128,-1,18
 10596 -1486 10596 -1486 11086 -1407 c 128,-1,19
 11576 -1328 11576 -1328 12026 -1200 c 1,0,-1
EndSplineSet
Validated: 1
EndChar

StartChar: plus
Encoding: 43 43 14
Width: 1582
Flags: W
LayerCount: 2
Fore
SplineSet
734 1052 m 1,0,-1
 849 1052 l 1,1,-1
 849 595 l 1,2,-1
 1308 595 l 1,3,-1
 1308 480 l 1,4,-1
 849 480 l 1,5,-1
 849 17 l 1,6,-1
 734 17 l 1,7,-1
 734 480 l 1,8,-1
 275 480 l 1,9,-1
 275 595 l 1,10,-1
 734 595 l 1,11,-1
 734 1052 l 1,0,-1
EndSplineSet
Validated: 1
EndChar

StartChar: comma
Encoding: 44 44 15
Width: 1582
Flags: W
LayerCount: 2
Fore
SplineSet
446 223 m 1,0,1
 424 164 424 164 398.5 108.5 c 128,-1,2
 373 53 373 53 337 -6.5 c 128,-1,3
 301 -66 301 -66 254 -132.5 c 128,-1,4
 207 -199 207 -199 145 -279 c 1,5,-1
 61 -317 l 1,6,-1
 33 -295 l 1,7,8
 121 -147 121 -147 164 -36.5 c 128,-1,9
 207 74 207 74 217 190 c 1,10,11
 258 203 258 203 286.5 211 c 128,-1,12
 315 219 315 219 337.5 226 c 128,-1,13
 360 233 360 233 378.5 239.5 c 128,-1,14
 397 246 397 246 418 252 c 1,15,-1
 446 223 l 1,0,1
EndSplineSet
Validated: 1
EndChar

StartChar: hyphen
Encoding: 45 45 16
AltUni2: 0000ad.ffffffff.0
Width: 1582
Flags: W
LayerCount: 2
Fore
SplineSet
499 440 m 1,0,-1
 489 451 l 1,1,-1
 544 588 l 1,2,-1
 1083 588 l 1,3,-1
 1093 578 l 1,4,-1
 1032 440 l 1,5,-1
 499 440 l 1,0,-1
EndSplineSet
Validated: 1
EndChar

StartChar: zero
Encoding: 48 48 19
Width: 1582
Flags: W
LayerCount: 2
Back
SplineSet
1074 455 m 0,0,1
 1014 387 1014 387 964 368 c 0,2,3
 930 356 930 356 850 356 c 0,4,5
 691 356 691 356 562 474 c 0,6,7
 421 603 421 603 421 775 c 0,8,9
 421 882 421 882 492 966 c 0,10,11
 579 1068 579 1068 719 1068 c 0,12,13
 878 1068 878 1068 1011 951 c 0,14,15
 1117 858 1117 858 1151 739 c 0,16,17
 1161 704 1161 704 1161 665 c 0,18,19
 1161 554 1161 554 1074 455 c 0,0,1
938 891 m 1,20,-1
 889 918 l 2,21,22
 864 928 864 928 841 928 c 0,23,24
 795 928 795 928 716 879 c 0,25,26
 599 807 599 807 599 649 c 0,27,28
 599 557 599 557 663 510 c 0,29,30
 690 490 690 490 727 490 c 0,31,32
 868 490 868 490 959 662 c 0,33,34
 993 727 993 727 993 784 c 0,35,36
 993 854 993 854 938 891 c 1,20,-1
EndSplineSet
Fore
SplineSet
1074 455 m 0,0,1
 1014 387 1014 387 964 368 c 0,2,3
 930 356 930 356 850 356 c 0,4,5
 691 356 691 356 562 474 c 0,6,7
 421 603 421 603 421 775 c 0,8,9
 421 882 421 882 492 966 c 0,10,11
 579 1068 579 1068 719 1068 c 0,12,13
 878 1068 878 1068 1011 951 c 0,14,15
 1117 858 1117 858 1151 739 c 0,16,17
 1161 704 1161 704 1161 665 c 0,18,19
 1161 554 1161 554 1074 455 c 0,0,1
938 891 m 1,20,-1
 889 918 l 2,21,22
 864 928 864 928 841 928 c 0,23,24
 795 928 795 928 716 879 c 0,25,26
 599 807 599 807 599 649 c 0,27,28
 599 557 599 557 663 510 c 0,29,30
 690 490 690 490 727 490 c 0,31,32
 868 490 868 490 959 662 c 0,33,34
 993 727 993 727 993 784 c 0,35,36
 993 854 993 854 938 891 c 1,20,-1
EndSplineSet
EndChar

StartChar: one
Encoding: 49 49 20
Width: 1582
VWidth: 575
Flags: W
LayerCount: 2
Back
SplineSet
1022 42 m 0,0,1
 1034 10 1034 10 1037 -16 c 0,2,3
 1037 -73 1037 -73 966 -73 c 0,4,5
 885 -73 885 -73 831 -26 c 1,6,-1
 772 14 l 2,7,8
 735 39 735 39 735 75 c 0,9,10
 735 110 735 110 778 123 c 2,11,-1
 822 136 l 1,12,-1
 819 141 l 1,13,14
 819 181 819 181 687.5 340.5 c 128,-1,15
 556 500 556 500 556 535 c 1,16,17
 560 552 560 552 647 623 c 0,18,19
 739 699 739 699 759 739 c 1,20,-1
 607 853 l 1,21,22
 538 922 538 922 538 1012 c 0,23,24
 538 1117 538 1117 595 1187 c 0,25,26
 656 1263 656 1263 759 1263 c 0,27,28
 861 1263 861 1263 949 1168 c 0,29,30
 1045 1065 1045 1065 1045 927 c 0,31,32
 1045 862 1045 862 1022 798 c 0,33,34
 1007 756 1007 756 913 659 c 1,35,36
 856 608 856 608 799 557 c 0,37,38
 724 485 724 485 724 439 c 0,39,40
 724 397 724 397 759 360 c 2,41,-1
 908 202 l 2,42,43
 979 126 979 126 1022 42 c 0,0,1
912 1083 m 0,44,45
 884 1133 884 1133 837 1133 c 0,46,47
 804 1133 804 1133 759 1098 c 0,48,49
 689 1044 689 1044 689 965 c 0,50,51
 689 940 689 940 692 931 c 0,52,53
 701 887 701 887 733 841 c 0,54,55
 770 788 770 788 810 788 c 0,56,57
 819 788 819 788 831 798 c 0,58,59
 929 921 929 921 929 1015 c 0,60,61
 929 1052 929 1052 912 1083 c 0,44,45
EndSplineSet
Fore
SplineSet
1055.5 242.5 m 5,0,1
 1095.5 330.5 1095.5 330.5 1099.5 378.5 c 4,2,3
 1115.5 570.5 1115.5 570.5 839.5 738.5 c 5,4,-1
 835.5 738.5 l 5,5,-1
 719.5 806.5 l 5,6,-1
 623.5 866.5 l 6,7,8
 463.5 982.5 463.5 982.5 439.5 1110.5 c 4,9,10
 427.5 1186.5 427.5 1186.5 455.5 1234.5 c 4,11,12
 491.5 1298.5 491.5 1298.5 567.5 1298.5 c 4,13,14
 627.5 1298.5 627.5 1298.5 663.5 1254.5 c 4,15,16
 695.5 1218.5 695.5 1218.5 699.5 1166.5 c 6,17,-1
 691.5 1122.5 l 5,18,-1
 679.5 1094.5 l 5,19,-1
 667.5 1062.5 l 5,20,-1
 675.5 1042.5 l 5,21,-1
 691.5 1010.5 l 5,22,-1
 707.5 982.5 l 6,23,24
 763.5 906.5 763.5 906.5 907.5 798.5 c 5,25,-1
 915.5 794.5 l 5,26,-1
 919.5 790.5 l 6,27,28
 987.5 738.5 987.5 738.5 1023.5 706.5 c 4,29,30
 1163.5 586.5 1163.5 586.5 1179.5 454.5 c 4,31,32
 1183.5 394.5 1183.5 394.5 1171.5 326.5 c 4,33,34
 1127.5 82.5 1127.5 82.5 919.5 -37.5 c 6,35,-1
 847.5 -73.5 l 6,36,37
 791.5 -93.5 791.5 -93.5 735.5 -97.5 c 4,38,39
 619.5 -105.5 619.5 -105.5 575.5 -25.5 c 6,40,-1
 567.5 -5.5 l 5,41,-1
 563.5 14.5 l 5,42,-1
 559.5 42.5 l 5,43,-1
 563.5 70.5 l 6,44,45
 587.5 222.5 587.5 222.5 759.5 298.5 c 4,46,47
 787.5 310.5 787.5 310.5 815.5 318.5 c 4,48,49
 827.5 318.5 827.5 318.5 839.5 322.5 c 6,50,-1
 907.5 326.5 l 5,51,-1
 911.5 326.5 l 6,52,53
 975.5 322.5 975.5 322.5 1015.5 290.5 c 4,54,55
 1035.5 274.5 1035.5 274.5 1055.5 242.5 c 5,0,1
EndSplineSet
EndChar

StartChar: two
Encoding: 50 50 21
Width: 1582
VWidth: 575
Flags: W
LayerCount: 2
Back
SplineSet
1220 -1 m 1,0,1
 1220 -47 1220 -47 1143 -47 c 0,2,3
 1078 -47 1078 -47 1052 -1 c 0,4,5
 1010 72 1010 72 873 290 c 0,6,7
 850 327 850 327 823 373 c 0,8,9
 814 388 814 388 776 459 c 0,10,11
 767 475 767 475 749 489 c 2,12,-1
 717 513 l 1,13,-1
 684 511 l 2,14,15
 586 505 586 505 519 567.5 c 128,-1,16
 452 630 452 630 455 728 c 2,17,-1
 456 764 l 1,18,19
 467 845 467 845 567 845 c 0,20,21
 622 845 622 845 650 806 c 0,22,23
 716 716 716 716 761 716 c 0,24,25
 829 716 829 716 930 926 c 0,26,27
 946 959 946 959 946 1005 c 0,28,29
 946 1092 946 1092 909 1123 c 0,30,31
 884 1144 884 1144 828 1144 c 0,32,33
 771 1144 771 1144 686 1123 c 1,34,-1
 580 1084 l 2,35,36
 542 1070 542 1070 499 1070 c 0,37,38
 472 1070 472 1070 434 1120 c 2,39,-1
 377 1195 l 2,40,41
 362 1215 362 1215 362 1226 c 0,42,43
 362 1265 362 1265 456 1283 c 0,44,45
 564 1304 564 1304 660 1304 c 0,46,47
 784 1304 784 1304 857 1271 c 0,48,49
 936 1236 936 1236 1009 1142 c 0,50,51
 1105 1018 1105 1018 1098 902 c 2,52,-1
 1096 869 l 2,53,54
 1090 767 1090 767 1010 687 c 0,55,56
 986 663 986 663 833 545 c 1,57,58
 871 446 871 446 951 360 c 2,59,-1
 1103 197 l 2,60,61
 1182 112 1182 112 1220 -1 c 1,0,1
EndSplineSet
Fore
SplineSet
297 864.5 m 5,0,-1
 409 800.5 l 5,1,-1
 417 792.5 l 5,2,-1
 497 744.5 l 6,3,4
 581 704.5 581 704.5 689 700.5 c 6,5,-1
 701 700.5 l 5,6,-1
 841 708.5 l 5,7,-1
 873 716.5 l 6,8,9
 1013 752.5 1013 752.5 1021 856.5 c 6,10,-1
 1021 884.5 l 5,11,-1
 1017 912.5 l 5,12,-1
 1009 932.5 l 6,13,14
 1001 952.5 1001 952.5 993 964.5 c 4,15,16
 941 1052.5 941 1052.5 761 1120.5 c 5,17,-1
 757 1124.5 l 6,18,19
 761 1124.5 761 1124.5 717 1140.5 c 6,20,-1
 637 1172.5 l 6,21,22
 549 1216.5 549 1216.5 509 1264.5 c 4,23,24
 473 1308.5 473 1308.5 469 1368.5 c 4,25,26
 457 1472.5 457 1472.5 545 1512.5 c 6,27,-1
 565 1520.5 l 5,28,-1
 589 1524.5 l 5,29,-1
 645 1516.5 l 5,30,31
 733 1476.5 733 1476.5 729 1380.5 c 5,32,-1
 717 1332.5 l 5,33,-1
 709 1316.5 l 5,34,-1
 705 1300.5 l 5,35,-1
 729 1260.5 l 5,36,-1
 737 1248.5 l 6,37,38
 781 1204.5 781 1204.5 885 1136.5 c 5,39,-1
 885 1136.5 l 5,40,41
 1021 1052.5 1021 1052.5 1065 984.5 c 4,42,43
 1105 928.5 1105 928.5 1101 856.5 c 4,44,45
 1097 768.5 1097 768.5 1041 696.5 c 4,46,47
 969 600.5 969 600.5 833 560.5 c 4,48,49
 797 552.5 797 552.5 765 548.5 c 5,50,-1
 937 400.5 l 5,51,-1
 1145 192.5 l 5,52,-1
 1289 28.5 l 5,53,-1
 1321 -47.5 l 5,54,-1
 1193 56.5 l 5,55,-1
 1185 60.5 l 5,56,-1
 1129 108.5 l 6,57,58
 937 260.5 937 260.5 761 376.5 c 6,59,-1
 521 524.5 l 5,60,-1
 485 544.5 l 5,61,-1
 449 564.5 l 6,62,63
 417 580.5 417 580.5 405 596.5 c 6,64,-1
 377 660.5 l 5,65,-1
 373 664.5 l 5,66,-1
 373 668.5 l 5,67,-1
 365 692.5 l 5,68,-1
 297 864.5 l 5,0,-1
EndSplineSet
EndChar

StartChar: three
Encoding: 51 51 22
Width: 1582
VWidth: 575
Flags: W
LayerCount: 2
Back
SplineSet
1221 16 m 1,0,-1
 1228 -15 l 1,1,2
 1228 -73 1228 -73 1166 -73 c 0,3,4
 1113 -73 1113 -73 1042 12 c 0,5,6
 1032 24 1032 24 951 138 c 0,7,8
 843 290 843 290 812 318 c 1,9,-1
 769 315 l 2,10,11
 666 308 666 308 586 372 c 0,12,13
 503 439 503 439 503 541 c 1,14,-1
 507 579 l 2,15,16
 511 618 511 618 561 640 c 0,17,18
 586 651 586 651 608 651 c 0,19,20
 637 651 637 651 661 637 c 1,21,22
 688 627 688 627 707 597 c 1,23,24
 754 541 754 541 800 541 c 0,25,26
 860 541 860 541 899 640 c 1,27,-1
 906 683 l 1,28,29
 906 717 906 717 892 745 c 1,30,31
 883 772 883 772 860 800 c 0,32,33
 850 812 850 812 830 813 c 1,34,-1
 803 808 l 1,35,-1
 762 798 l 1,36,-1
 666 781 l 1,37,38
 628 781 628 781 602 813 c 2,39,-1
 548 879 l 2,40,41
 527 905 527 905 527 923 c 0,42,43
 527 943 527 943 567 949 c 0,44,45
 590 952 590 952 613 951 c 2,46,-1
 647 949 l 2,47,48
 804 940 804 940 861 1075 c 0,49,50
 870 1096 870 1096 870 1120 c 0,51,52
 870 1210 870 1210 748 1210 c 0,53,54
 687 1210 687 1210 632 1186 c 2,55,-1
 556 1153 l 2,56,57
 529 1141 529 1141 472 1129 c 1,58,59
 442 1144 442 1144 393 1211 c 2,60,-1
 354 1264 l 1,61,-1
 369 1287 l 1,62,63
 383 1300 383 1300 419 1316 c 1,64,65
 548 1357 548 1357 637 1357 c 0,66,67
 741 1357 741 1357 830 1297 c 0,68,69
 1014 1173 1014 1173 1014 1023 c 0,70,71
 1014 937 1014 937 947 880 c 1,72,-1
 920 863 l 1,73,-1
 914 853 l 1,74,75
 914 843 914 843 930 827 c 0,76,77
 1048 709 1048 709 1048 580 c 0,78,79
 1048 482 1048 482 961 402 c 1,80,-1
 926 376 l 2,81,82
 911 365 911 365 911 354 c 0,83,84
 911 344 911 344 918 332 c 2,85,-1
 947 297 l 1,86,-1
 1113 136 l 2,87,88
 1209 43 1209 43 1221 16 c 1,0,-1
EndSplineSet
Fore
SplineSet
853.5 923 m 5,0,-1
 897.5 859 l 6,1,2
 921.5 815 921.5 815 921.5 763 c 4,3,4
 921.5 707 921.5 707 893.5 663 c 4,5,6
 841.5 567 841.5 567 725.5 567 c 4,7,8
 585.5 567 585.5 567 541.5 687 c 4,9,10
 521.5 731 521.5 731 525.5 783 c 4,11,12
 529.5 939 529.5 939 661.5 1023 c 4,13,14
 717.5 1059 717.5 1059 797.5 1071 c 4,15,16
 829.5 1075 829.5 1075 865.5 1071 c 4,17,18
 1089.5 1047 1089.5 1047 1205.5 807 c 5,19,-1
 1237.5 719 l 6,20,21
 1269.5 611 1269.5 611 1229.5 279 c 5,22,-1
 1269.5 495 l 5,23,24
 1269.5 379 1269.5 379 1229.5 279 c 4,25,26
 1149.5 79 1149.5 79 961.5 23 c 4,27,28
 873.5 -5 873.5 -5 785.5 15 c 4,29,30
 741.5 27 741.5 27 685.5 59 c 4,31,32
 569.5 123 569.5 123 473.5 295 c 4,33,34
 461.5 315 461.5 315 449.5 335 c 4,35,36
 381.5 451 381.5 451 305.5 647 c 6,37,-1
 261.5 751 l 6,38,39
 253.5 771 253.5 771 177.5 959 c 6,40,-1
 229.5 823 l 5,41,-1
 177.5 959 l 5,42,-1
 205.5 947 l 6,43,44
 229.5 939 229.5 939 241.5 927 c 4,45,46
 261.5 915 261.5 915 277.5 879 c 6,47,-1
 289.5 855 l 5,48,-1
 325.5 779 l 5,49,-1
 357.5 707 l 5,50,-1
 425.5 555 l 6,51,52
 577.5 247 577.5 247 773.5 195 c 5,53,-1
 825.5 187 l 6,54,55
 877.5 179 877.5 179 933.5 199 c 6,56,-1
 1021.5 235 l 5,57,58
 1209.5 355 1209.5 355 1185.5 603 c 4,59,60
 1181.5 643 1181.5 643 1169.5 683 c 6,61,-1
 1165.5 699 l 6,62,63
 1121.5 859 1121.5 859 997.5 911 c 6,64,-1
 965.5 923 l 5,65,-1
 909.5 931 l 5,66,-1
 873.5 927 l 5,67,-1
 853.5 923 l 5,0,-1
EndSplineSet
EndChar

StartChar: four
Encoding: 52 52 23
Width: 1582
VWidth: 575
Flags: W
LayerCount: 2
Back
SplineSet
1140 718 m 1,0,-1
 948 565 l 1,1,-1
 937 549 l 2,2,3
 932 545 932 545 928 537 c 1,4,5
 928 525 928 525 962 505 c 0,6,7
 1034 463 1034 463 1080 384.5 c 128,-1,8
 1126 306 1126 306 1126 224 c 0,9,10
 1126 128 1126 128 1051 56 c 128,-1,11
 976 -16 976 -16 879 -16 c 0,12,13
 807 -16 807 -16 702 48 c 0,14,15
 628 93 628 93 579.5 174 c 128,-1,16
 531 255 531 255 531 339 c 0,17,18
 531 492 531 492 685 588 c 1,19,20
 655 620 655 620 591 668 c 0,21,22
 523 720 523 720 496 747 c 0,23,24
 335 908 335 908 335 1056 c 0,25,26
 335 1176 335 1176 436 1267 c 0,27,28
 450 1279 450 1279 478 1292 c 1,29,-1
 545 1299 l 1,30,31
 576 1295 576 1295 609.5 1264.5 c 128,-1,32
 643 1234 643 1234 646 1204 c 2,33,-1
 649 1174 l 2,34,35
 649 1154 649 1154 644 1146 c 2,36,-1
 586 1103 l 2,37,38
 503 1041 503 1041 503 955 c 0,39,40
 503 789 503 789 761 639 c 1,41,42
 1114 867 1114 867 1114 1040 c 0,43,44
 1114 1093 1114 1093 1077 1154 c 1,45,-1
 1066 1169 l 2,46,47
 1056 1183 1056 1183 1041 1188 c 0,48,49
 999 1203 999 1203 999 1257 c 1,50,-1
 1003 1278 l 2,51,52
 1007 1299 1007 1299 1031 1301 c 1,53,-1
 1052 1296 l 2,54,55
 1066 1291 1066 1291 1080 1278 c 0,56,57
 1248 1128 1248 1128 1248 971 c 0,58,59
 1248 832 1248 832 1140 718 c 1,0,-1
962 325 m 0,60,61
 962 426 962 426 851 480 c 1,62,63
 804 458 804 458 748 401 c 0,64,65
 704 356 704 356 688 300 c 1,66,-1
 683 247 l 1,67,68
 683 132 683 132 780 132 c 1,69,-1
 799 129 l 1,70,71
 861 129 861 129 913 197 c 0,72,73
 962 261 962 261 962 325 c 0,60,61
EndSplineSet
Fore
SplineSet
679 583.5 m 1,0,1
 483 655.5 483 655.5 427 823.5 c 0,2,3
 407 879.5 407 879.5 411 943.5 c 2,4,-1
 431 1023.5 l 2,5,6
 451 1075.5 451 1075.5 483 1107.5 c 0,7,8
 527 1159.5 527 1159.5 579 1187.5 c 0,9,10
 655 1231.5 655 1231.5 731 1243.5 c 2,11,-1
 835 1247.5 l 1,12,13
 1059 1227.5 1059 1227.5 1143 1067.5 c 0,14,15
 1159 1035.5 1159 1035.5 1167 999.5 c 2,16,-1
 1175 959.5 l 1,17,-1
 1175 919.5 l 2,18,19
 1171 871.5 1171 871.5 1151 823.5 c 0,20,21
 1115 739.5 1115 739.5 987 655.5 c 1,22,-1
 987 655.5 l 1,23,-1
 955 635.5 l 1,24,25
 1067 587.5 1067 587.5 1135 495.5 c 0,26,27
 1203 407.5 1203 407.5 1203 319.5 c 2,28,-1
 1191 227.5 l 1,29,30
 1131 35.5 1131 35.5 895 -12.5 c 0,31,32
 851 -20.5 851 -20.5 807 -20.5 c 0,33,34
 663 -20.5 663 -20.5 555 43.5 c 0,35,36
 403 139.5 403 139.5 411 295.5 c 0,37,38
 415 315.5 415 315.5 419 335.5 c 2,39,-1
 435 379.5 l 2,40,41
 451 423.5 451 423.5 483 451.5 c 0,42,43
 527 499.5 527 499.5 635 559.5 c 1,44,-1
 639 559.5 l 1,45,46
 663 575.5 663 575.5 679 583.5 c 1,0,1
547 931.5 m 0,47,48
 567 799.5 567 799.5 747 719.5 c 1,49,-1
 751 719.5 l 1,50,-1
 759 715.5 l 1,51,-1
 787 699.5 l 1,52,-1
 819 687.5 l 1,53,-1
 859 683.5 l 2,54,55
 879 687.5 879 687.5 911 711.5 c 1,56,57
 887 691.5 887 691.5 935 731.5 c 0,58,59
 1055 843.5 1055 843.5 1035 963.5 c 0,60,61
 1015 1107.5 1015 1107.5 879 1163.5 c 0,62,63
 835 1179.5 835 1179.5 787 1179.5 c 2,64,-1
 779 1179.5 l 2,65,66
 639 1171.5 639 1171.5 571 1055.5 c 0,67,68
 539 995.5 539 995.5 547 931.5 c 0,47,48
551 251.5 m 0,69,70
 571 115.5 571 115.5 715 63.5 c 0,71,72
 759 47.5 759 47.5 807 47.5 c 2,73,-1
 867 55.5 l 2,74,75
 1007 79.5 1007 79.5 1055 203.5 c 0,76,77
 1067 243.5 1067 243.5 1063 287.5 c 2,78,-1
 1063 295.5 l 2,79,80
 1051 419.5 1051 419.5 867 507.5 c 0,81,82
 855 511.5 855 511.5 831 523.5 c 2,83,-1
 827 523.5 l 1,84,-1
 819 527.5 l 1,85,-1
 775 539.5 l 1,86,-1
 747 531.5 l 1,87,-1
 743 527.5 l 1,88,-1
 715 511.5 l 1,89,-1
 691 495.5 l 2,90,91
 535 387.5 535 387.5 551 251.5 c 0,69,70
EndSplineSet
EndChar

StartChar: five
Encoding: 53 53 24
Width: 1582
VWidth: 575
Flags: W
LayerCount: 2
Back
SplineSet
1192 -42 m 0,0,1
 1171 -42 1171 -42 1163 -33 c 0,2,3
 1138 -14 1138 -14 1119 63 c 2,4,-1
 1093 167 l 1,5,6
 1073 219 1073 219 1017 354 c 2,7,-1
 922 570 l 1,8,-1
 906 577 l 1,9,-1
 868 565 l 2,10,11
 836 555 836 555 795 555 c 0,12,13
 662 555 662 555 540 628 c 0,14,15
 341 747 341 747 341 934 c 2,16,-1
 341 974 l 2,17,18
 344 983 344 983 348 1004 c 2,19,-1
 356 1059 l 1,20,-1
 360 1096 l 1,21,22
 360 1143 360 1143 335 1210 c 0,23,24
 332 1218 332 1218 313 1255 c 1,25,26
 313 1299 313 1299 336 1300 c 0,27,28
 368 1301 368 1301 408 1279 c 2,29,-1
 481 1239 l 1,30,31
 589 1193 589 1193 589 1127 c 0,32,33
 589 1104 589 1104 582 1083 c 2,34,-1
 561 1021 l 2,35,36
 554 999 554 999 538.5 944 c 128,-1,37
 523 889 523 889 523 836 c 0,38,39
 523 691 523 691 681 697 c 0,40,41
 830 702 830 702 830 823 c 0,42,43
 830 855 830 855 826 867 c 1,44,45
 826 1009 826 1009 965 1026 c 1,46,47
 1034 1006 1034 1006 1079 948 c 128,-1,48
 1124 890 1124 890 1124 818 c 0,49,50
 1124 722 1124 722 1041 648 c 1,51,-1
 1022 638 l 2,52,53
 1010 633 1010 633 1008 624 c 0,54,55
 1008 619 1008 619 1090 465 c 2,56,-1
 1150 352 l 1,57,-1
 1237 213 l 1,58,59
 1270 139 1270 139 1270 77 c 0,60,61
 1270 46 1270 46 1259.5 5.5 c 128,-1,62
 1249 -35 1249 -35 1192 -42 c 0,0,1
EndSplineSet
Fore
SplineSet
1190.5 34.5 m 5,0,1
 1062.5 -33.5 1062.5 -33.5 902.5 -25.5 c 4,2,3
 618.5 -13.5 618.5 -13.5 462.5 186.5 c 4,4,5
 398.5 266.5 398.5 266.5 374.5 366.5 c 6,6,-1
 362.5 478.5 l 6,7,8
 362.5 558.5 362.5 558.5 382.5 646.5 c 4,9,10
 458.5 950.5 458.5 950.5 722.5 1122.5 c 4,11,12
 882.5 1226.5 882.5 1226.5 1058.5 1234.5 c 5,13,-1
 1058.5 1202.5 l 6,14,15
 1062.5 990.5 1062.5 990.5 1170.5 894.5 c 5,16,-1
 1234.5 854.5 l 6,17,18
 1270.5 834.5 1270.5 834.5 1318.5 826.5 c 5,19,-1
 1318.5 818.5 l 5,20,21
 1090.5 782.5 1090.5 782.5 966.5 562.5 c 4,22,23
 926.5 498.5 926.5 498.5 910.5 426.5 c 6,24,-1
 894.5 330.5 l 6,25,26
 890.5 258.5 890.5 258.5 914.5 210.5 c 4,27,28
 954.5 142.5 954.5 142.5 1018.5 118.5 c 6,29,-1
 1054.5 106.5 l 5,30,-1
 1094.5 94.5 l 5,31,-1
 1166.5 54.5 l 5,32,-1
 1190.5 38.5 l 5,33,-1
 1190.5 34.5 l 5,0,1
946.5 46.5 m 5,34,35
 822.5 150.5 822.5 150.5 786.5 258.5 c 4,36,37
 754.5 342.5 754.5 342.5 758.5 438.5 c 4,38,39
 774.5 674.5 774.5 674.5 942.5 782.5 c 5,40,-1
 1022.5 818.5 l 5,41,-1
 1022.5 826.5 l 5,42,43
 902.5 862.5 902.5 862.5 882.5 1006.5 c 4,44,45
 878.5 1018.5 878.5 1018.5 878.5 1026.5 c 6,46,-1
 878.5 1042.5 l 5,47,-1
 750.5 974.5 l 5,48,49
 586.5 866.5 586.5 866.5 514.5 686.5 c 4,50,51
 482.5 602.5 482.5 602.5 474.5 518.5 c 4,52,53
 458.5 326.5 458.5 326.5 566.5 194.5 c 4,54,55
 590.5 162.5 590.5 162.5 638.5 126.5 c 4,56,57
 682.5 86.5 682.5 86.5 750.5 66.5 c 4,58,59
 822.5 38.5 822.5 38.5 946.5 46.5 c 5,34,35
EndSplineSet
EndChar

StartChar: six
Encoding: 54 54 25
Width: 1582
VWidth: 575
Flags: W
LayerCount: 2
Back
SplineSet
1138 -1 m 2,0,1
 1148 -18 1148 -18 1148 -35 c 0,2,3
 1148 -88 1148 -88 1083 -95 c 1,4,5
 1040 -95 1040 -95 1005 -50 c 0,6,7
 981 -19 981 -19 946 77 c 0,8,9
 865 304 865 304 837 344 c 1,10,11
 735 344 735 344 685 368 c 0,12,13
 616 401 616 401 522 513 c 0,14,15
 450 599 450 599 450 684 c 0,16,17
 450 791 450 791 558 888 c 1,18,19
 497 957 497 957 471 1001 c 0,20,21
 435 1060 435 1060 435 1114 c 0,22,23
 435 1161 435 1161 464 1204 c 0,24,25
 548 1327 548 1327 733 1319 c 2,26,-1
 777 1317 l 2,27,28
 888 1312 888 1312 922 1292 c 0,29,30
 944 1279 944 1279 962 1233 c 2,31,-1
 980 1186 l 1,32,-1
 992 1143 l 1,33,34
 992 1117 992 1117 968 1105 c 1,35,36
 952 1108 952 1108 883 1133 c 0,37,38
 801 1162 801 1162 755 1162 c 0,39,40
 715 1162 715 1162 686 1148 c 0,41,42
 582 1112 582 1112 582 1011 c 0,43,44
 582 959 582 959 621 922 c 1,45,46
 649 933 649 933 721 951 c 1,47,-1
 821 958 l 2,48,49
 868 961 868 961 885 919 c 1,50,-1
 910 876 l 2,51,52
 926 854 926 854 929 833 c 1,53,-1
 924 813 l 1,54,55
 914 793 914 793 881 795 c 2,56,-1
 815 799 l 2,57,58
 728 804 728 804 657 748 c 0,59,60
 584 689 584 689 584 602 c 0,61,62
 584 569 584 569 597 537 c 0,63,64
 606 515 606 515 644 500 c 0,65,66
 676 487 676 487 705 487 c 0,67,68
 751 487 751 487 787 513 c 1,69,-1
 796 530 l 1,70,-1
 797 575 l 1,71,72
 807 655 807 655 924 655 c 0,73,74
 976 655 976 655 1017 600 c 0,75,76
 1056 549 1056 549 1056 496 c 0,77,78
 1056 433 1056 433 989 392 c 2,79,-1
 955 371 l 2,80,81
 939 361 939 361 939 344 c 1,82,-1
 950 311 l 1,83,-1
 1138 -1 l 2,0,1
EndSplineSet
Fore
SplineSet
539 928.5 m 5,0,1
 479 928.5 479 928.5 439 952.5 c 4,2,3
 415 972.5 415 972.5 403 992.5 c 6,4,-1
 387 1032.5 l 6,5,6
 367 1124.5 367 1124.5 451 1172.5 c 4,7,8
 499 1204.5 499 1204.5 559 1184.5 c 4,9,10
 627 1160.5 627 1160.5 647 1088.5 c 6,11,-1
 651 1056.5 l 5,12,-1
 655 1024.5 l 5,13,-1
 679 740.5 l 5,14,-1
 679 724.5 l 5,15,-1
 679 720.5 l 5,16,-1
 683 676.5 l 5,17,-1
 683 672.5 l 5,18,-1
 687 668.5 l 5,19,20
 695 604.5 695 604.5 735 592.5 c 5,21,-1
 771 596.5 l 5,22,-1
 783 600.5 l 5,23,-1
 863 656.5 l 5,24,-1
 947 736.5 l 5,25,-1
 971 760.5 l 6,26,27
 1035 836.5 1035 836.5 1047 892.5 c 5,28,29
 1127 852.5 1127 852.5 1191 748.5 c 4,30,31
 1267 628.5 1267 628.5 1267 476.5 c 4,32,33
 1267 212.5 1267 212.5 1075 72.5 c 4,34,35
 1039 44.5 1039 44.5 999 28.5 c 6,36,-1
 919 4.5 l 5,37,-1
 879 -3.5 l 5,38,-1
 771 0.5 l 5,39,40
 595 28.5 595 28.5 467 216.5 c 4,41,42
 387 336.5 387 336.5 303 592.5 c 5,43,-1
 299 596.5 l 5,44,-1
 291 616.5 l 6,45,46
 267 692.5 267 692.5 251 736.5 c 6,47,-1
 163 976.5 l 5,48,-1
 191 964.5 l 6,49,50
 215 956.5 215 956.5 227 944.5 c 6,51,-1
 251 900.5 l 6,52,53
 251 904.5 251 904.5 259 884.5 c 6,54,-1
 267 864.5 l 5,55,-1
 331 692.5 l 5,56,-1
 383 568.5 l 6,57,58
 507 280.5 507 280.5 683 196.5 c 4,59,60
 755 160.5 755 160.5 843 160.5 c 4,61,62
 1043 160.5 1043 160.5 1147 316.5 c 4,63,64
 1175 356.5 1175 356.5 1187 408.5 c 4,65,66
 1199 452.5 1199 452.5 1199 492.5 c 4,67,68
 1195 560.5 1195 560.5 1139 644.5 c 5,69,-1
 1135 648.5 l 5,70,-1
 1119 672.5 l 5,71,-1
 1115 672.5 l 5,72,73
 1079 628.5 1079 628.5 983 556.5 c 6,74,-1
 867 476.5 l 6,75,76
 819 444.5 819 444.5 783 440.5 c 4,77,78
 699 432.5 699 432.5 631 544.5 c 4,79,80
 583 632.5 583 632.5 559 796.5 c 6,81,-1
 547 860.5 l 5,82,-1
 539 928.5 l 5,0,1
EndSplineSet
EndChar

StartChar: seven
Encoding: 55 55 26
Width: 1582
VWidth: 575
Flags: W
LayerCount: 2
Back
SplineSet
1245 808 m 2,0,-1
 1251 738 l 1,1,-1
 1253 701 l 2,2,3
 1262 530 1262 530 1166 402 c 0,4,5
 1063 264 1063 264 896 264 c 0,6,7
 581 264 581 264 415 711 c 0,8,9
 361 857 361 857 328 1047 c 1,10,11
 328 1118 328 1118 365 1122 c 0,12,13
 389 1122 389 1122 406 1097 c 128,-1,14
 423 1072 423 1072 423 1047 c 0,15,16
 423 984 423 984 458 865 c 0,17,18
 563 508 563 508 779 453 c 1,19,-1
 844 444 l 1,20,21
 930 444 930 444 1000 493 c 0,22,23
 1075 545 1075 545 1091 626 c 0,24,25
 1091 646 1091 646 1058 645 c 2,26,-1
 1014 643 l 2,27,28
 913 638 913 638 799 706 c 0,29,30
 670 782 670 782 670 893 c 0,31,32
 670 1110 670 1110 912 1110 c 0,33,34
 1014 1110 1014 1110 1129 1013 c 0,35,36
 1235 923 1235 923 1245 808 c 2,0,-1
1104 710 m 1,37,-1
 1116 805 l 1,38,39
 1116 837 1116 837 1104 872 c 1,40,41
 1081 998 1081 998 983 998 c 1,42,-1
 944 993 l 2,43,44
 920 990 920 990 896 960 c 0,45,46
 875 934 875 934 869 907 c 1,47,48
 869 710 869 710 1104 710 c 1,37,-1
EndSplineSet
Fore
SplineSet
949.5 638.5 m 5,0,-1
 849.5 634.5 l 5,1,-1
 837.5 634.5 l 5,2,-1
 829.5 634.5 l 6,3,4
 805.5 634.5 805.5 634.5 785.5 634.5 c 6,5,-1
 621.5 642.5 l 6,6,7
 549.5 650.5 549.5 650.5 485.5 682.5 c 4,8,9
 433.5 710.5 433.5 710.5 405.5 746.5 c 4,10,11
 349.5 810.5 349.5 810.5 365.5 910.5 c 4,12,13
 377.5 1010.5 377.5 1010.5 445.5 1094.5 c 4,14,15
 541.5 1218.5 541.5 1218.5 701.5 1218.5 c 4,16,17
 809.5 1218.5 809.5 1218.5 897.5 1146.5 c 4,18,19
 961.5 1098.5 961.5 1098.5 1005.5 998.5 c 4,20,21
 1053.5 886.5 1053.5 886.5 1073.5 738.5 c 6,22,-1
 1077.5 602.5 l 5,23,-1
 1077.5 534.5 l 5,24,-1
 1077.5 466.5 l 5,25,-1
 1081.5 358.5 l 5,26,-1
 1081.5 246.5 l 5,27,28
 1137.5 246.5 1137.5 246.5 1177.5 210.5 c 4,29,30
 1213.5 174.5 1213.5 174.5 1177.5 18.5 c 5,31,-1
 1217.5 110.5 l 5,32,33
 1213.5 54.5 1213.5 54.5 1177.5 18.5 c 6,34,-1
 1129.5 -9.5 l 5,35,-1
 1105.5 -17.5 l 6,36,37
 1033.5 -29.5 1033.5 -29.5 985.5 30.5 c 4,38,39
 961.5 58.5 961.5 58.5 957.5 90.5 c 6,40,-1
 953.5 126.5 l 5,41,-1
 953.5 146.5 l 5,42,-1
 953.5 166.5 l 5,43,-1
 953.5 290.5 l 5,44,-1
 953.5 334.5 l 5,45,-1
 949.5 378.5 l 5,46,-1
 949.5 638.5 l 5,0,-1
477.5 814.5 m 6,47,48
 485.5 762.5 485.5 762.5 537.5 750.5 c 6,49,-1
 585.5 746.5 l 5,50,-1
 597.5 750.5 l 5,51,-1
 601.5 750.5 l 5,52,-1
 629.5 750.5 l 5,53,-1
 821.5 750.5 l 5,54,-1
 901.5 750.5 l 5,55,-1
 913.5 750.5 l 5,56,-1
 949.5 754.5 l 6,57,58
 973.5 762.5 973.5 762.5 973.5 798.5 c 6,59,-1
 969.5 818.5 l 5,60,-1
 957.5 874.5 l 6,61,62
 929.5 974.5 929.5 974.5 865.5 1046.5 c 4,63,64
 809.5 1102.5 809.5 1102.5 765.5 1110.5 c 260,65,66
 721.5 1118.5 721.5 1118.5 661.5 1090.5 c 4,67,68
 553.5 1038.5 553.5 1038.5 501.5 926.5 c 6,69,-1
 477.5 858.5 l 5,70,-1
 477.5 814.5 l 6,47,48
EndSplineSet
EndChar

StartChar: eight
Encoding: 56 56 27
Width: 1582
VWidth: 575
Flags: W
LayerCount: 2
Back
SplineSet
1219 1086 m 0,0,1
 1109 988 1109 988 924 837 c 2,2,-1
 667 628 l 2,3,4
 552 534 552 534 552 434 c 0,5,6
 552 318 552 318 719 267 c 1,7,8
 829 283 829 283 864 308 c 0,9,10
 886 324 886 324 962 427 c 0,11,12
 994 471 994 471 1066 471 c 1,13,-1
 1096 467 l 1,14,15
 1133 457 1133 457 1199 423 c 1,16,17
 1232 397 1232 397 1232 365 c 0,18,19
 1232 316 1232 316 1158 248 c 0,20,21
 1037 137 1037 137 855 137 c 0,22,23
 797 137 797 137 732 153 c 0,24,25
 682 165 682 165 621 196 c 0,26,27
 379 318 379 318 349 515 c 2,28,-1
 341 567 l 1,29,30
 341 599 341 599 386 644 c 0,31,32
 390 648 390 648 433 683 c 2,33,-1
 694 896 l 1,34,-1
 1027 1180 l 2,35,36
 1052 1201 1052 1201 1087 1205 c 0,37,38
 1119 1205 1119 1205 1158 1180 c 1,39,-1
 1209 1155 l 2,40,41
 1240 1140 1240 1140 1242 1123 c 0,42,43
 1242 1107 1242 1107 1219 1086 c 0,0,1
EndSplineSet
Fore
SplineSet
949 635 m 5,0,-1
 985 691 l 5,1,2
 1045 751 1045 751 1129 751 c 6,3,-1
 1169 751 l 5,4,-1
 1181 747 l 5,5,-1
 1185 747 l 6,6,7
 1249 747 1249 747 1285 763 c 4,8,9
 1325 775 1325 775 1341 811 c 6,10,-1
 1349 831 l 5,11,-1
 1349 835 l 5,12,-1
 1365 871 l 6,13,14
 1385 891 1385 891 1401 855 c 6,15,-1
 1405 851 l 5,16,-1
 1413 807 l 5,17,-1
 1409 759 l 5,18,-1
 1385 679 l 5,19,20
 1333 587 1333 587 1209 587 c 6,21,-1
 1189 587 l 6,22,23
 1157 591 1157 591 1141 591 c 4,24,25
 1061 591 1061 591 1025 547 c 4,26,27
 1009 531 1009 531 1017 491 c 6,28,-1
 1021 483 l 5,29,-1
 1025 463 l 6,30,31
 1029 387 1029 387 1005 311 c 4,32,33
 941 103 941 103 737 31 c 6,34,-1
 665 11 l 6,35,36
 525 -17 525 -17 445 59 c 4,37,38
 373 131 373 131 373 347 c 6,39,-1
 373 327 l 5,40,-1
 373 347 l 5,41,-1
 373 727 l 6,42,43
 373 747 373 747 373 791 c 6,44,-1
 373 919 l 6,45,46
 369 943 369 943 329 959 c 5,47,-1
 325 959 l 5,48,-1
 297 971 l 6,49,50
 233 1011 233 1011 237 1087 c 6,51,-1
 241 1107 l 6,52,53
 261 1199 261 1199 357 1211 c 4,54,55
 365 1211 365 1211 373 1211 c 4,56,57
 429 1211 429 1211 465 1167 c 4,58,59
 501 1127 501 1127 501 1043 c 6,60,-1
 501 1039 l 5,61,-1
 501 1035 l 6,62,63
 501 1031 501 1031 501 1023 c 6,64,-1
 501 1019 l 5,65,-1
 501 1015 l 5,66,-1
 501 1007 l 5,67,-1
 501 975 l 5,68,-1
 501 763 l 5,69,-1
 501 735 l 5,70,-1
 505 643 l 5,71,-1
 525 683 l 5,72,-1
 529 687 l 5,73,-1
 541 703 l 6,74,75
 609 787 609 787 725 771 c 4,76,77
 873 755 873 755 945 635 c 5,78,-1
 949 635 l 5,0,-1
921 479 m 4,79,80
 933 547 933 547 853 575 c 4,81,82
 777 603 777 603 693 611 c 6,83,-1
 613 611 l 5,84,-1
 605 611 l 6,85,86
 609 611 609 611 593 611 c 6,87,-1
 565 607 l 6,88,89
 509 595 509 595 501 567 c 6,90,-1
 501 519 l 5,91,-1
 501 499 l 5,92,-1
 501 467 l 5,93,-1
 501 275 l 6,94,95
 501 183 501 183 549 151 c 4,96,97
 573 135 573 135 605 143 c 4,98,99
 645 147 645 147 689 179 c 6,100,-1
 697 183 l 6,101,102
 793 247 793 247 865 355 c 4,103,104
 909 423 909 423 921 479 c 4,79,80
EndSplineSet
EndChar

StartChar: nine
Encoding: 57 57 28
Width: 1582
VWidth: 575
Flags: W
LayerCount: 2
Back
SplineSet
1240 102 m 0,0,1
 1240 -49 1240 -49 1130 -49 c 0,2,3
 1065 -49 1065 -49 979 63 c 1,4,5
 979 109 979 109 992 120 c 0,6,7
 1052 153 1052 153 1052 211 c 0,8,9
 1052 306 1052 306 911 416 c 0,10,11
 775 522 775 522 630 643 c 0,12,13
 461 784 461 784 434 815 c 0,14,15
 343 919 343 919 343 1048 c 0,16,17
 343 1170 343 1170 408 1248 c 0,18,19
 475 1330 475 1330 596 1342 c 2,20,-1
 635 1346 l 1,21,-1
 685 1340 l 1,22,23
 809 1340 809 1340 924 1227 c 0,24,25
 1026 1127 1026 1127 1026 1006 c 0,26,27
 1026 971 1026 971 1015 937 c 0,28,29
 981 832 981 832 920 790.5 c 128,-1,30
 859 749 859 749 747 749 c 0,31,32
 728 749 728 749 708 740 c 2,33,-1
 674 725 l 1,34,-1
 953 494 l 2,35,36
 1129 348 1129 348 1184.5 274.5 c 128,-1,37
 1240 201 1240 201 1240 102 c 0,0,1
808 937 m 0,38,39
 847 1002 847 1002 847 1089 c 0,40,41
 847 1138 847 1138 832 1167 c 1,42,43
 810 1233 810 1233 726 1233 c 0,44,45
 634 1233 634 1233 577 1136 c 0,46,47
 533 1061 533 1061 533 961 c 0,48,49
 533 845 533 845 596 808 c 1,50,51
 731 808 731 808 808 937 c 0,38,39
EndSplineSet
Fore
SplineSet
1033.5 181.5 m 5,0,1
 1097.5 209.5 1097.5 209.5 1129.5 241.5 c 6,2,-1
 1169.5 297.5 l 6,3,4
 1197.5 349.5 1197.5 349.5 1197.5 409.5 c 4,5,6
 1197.5 569.5 1197.5 569.5 1053.5 685.5 c 4,7,8
 957.5 765.5 957.5 765.5 721.5 821.5 c 5,9,-1
 717.5 825.5 l 5,10,11
 597.5 853.5 597.5 853.5 537.5 873.5 c 4,12,13
 393.5 925.5 393.5 925.5 361.5 1025.5 c 5,14,-1
 349.5 1105.5 l 5,15,-1
 365.5 1153.5 l 6,16,17
 401.5 1225.5 401.5 1225.5 481.5 1225.5 c 4,18,19
 581.5 1225.5 581.5 1225.5 609.5 1121.5 c 4,20,21
 621.5 1073.5 621.5 1073.5 593.5 1021.5 c 5,22,-1
 657.5 997.5 l 5,23,-1
 721.5 977.5 l 5,24,-1
 929.5 897.5 l 5,25,26
 1109.5 809.5 1109.5 809.5 1201.5 661.5 c 4,27,28
 1269.5 553.5 1269.5 553.5 1273.5 425.5 c 4,29,30
 1281.5 229.5 1281.5 229.5 1149.5 105.5 c 4,31,32
 1101.5 65.5 1101.5 65.5 1049.5 41.5 c 4,33,34
 981.5 9.5 981.5 9.5 897.5 1.5 c 5,35,-1
 897.5 85.5 l 6,36,37
 889.5 229.5 889.5 229.5 857.5 333.5 c 4,38,39
 821.5 429.5 821.5 429.5 757.5 481.5 c 4,40,41
 713.5 509.5 713.5 509.5 665.5 513.5 c 4,42,43
 537.5 521.5 537.5 521.5 469.5 409.5 c 5,44,-1
 453.5 369.5 l 6,45,46
 433.5 317.5 433.5 317.5 449.5 257.5 c 4,47,48
 457.5 233.5 457.5 233.5 469.5 201.5 c 6,49,-1
 477.5 181.5 l 5,50,51
 517.5 233.5 517.5 233.5 561.5 253.5 c 6,52,-1
 597.5 261.5 l 6,53,54
 713.5 281.5 713.5 281.5 769.5 177.5 c 4,55,56
 777.5 157.5 777.5 157.5 785.5 137.5 c 4,57,58
 785.5 133.5 785.5 133.5 785.5 129.5 c 4,59,60
 809.5 13.5 809.5 13.5 701.5 -46.5 c 4,61,62
 681.5 -58.5 681.5 -58.5 661.5 -62.5 c 6,63,-1
 593.5 -66.5 l 5,64,-1
 525.5 -50.5 l 6,65,66
 369.5 -2.5 369.5 -2.5 325.5 173.5 c 5,67,-1
 317.5 249.5 l 6,68,69
 313.5 273.5 313.5 273.5 317.5 293.5 c 4,70,71
 337.5 417.5 337.5 417.5 409.5 497.5 c 4,72,73
 505.5 597.5 505.5 597.5 657.5 597.5 c 4,74,75
 753.5 601.5 753.5 601.5 833.5 557.5 c 4,76,77
 1009.5 461.5 1009.5 461.5 1029.5 229.5 c 4,78,79
 1033.5 225.5 1033.5 225.5 1033.5 221.5 c 6,80,-1
 1033.5 181.5 l 5,0,1
EndSplineSet
EndChar

StartChar: semicolon
Encoding: 59 59 30
AltUni2: 00037e.ffffffff.0
Width: 1582
VWidth: 575
Flags: W
LayerCount: 2
Back
SplineSet
1282 1169 m 1,0,-1
 1106 1169 l 1,1,2
 1093 1136 1093 1136 1093 1109 c 0,3,4
 1093 1083 1093 1083 1111 987 c 0,5,6
 1122 929 1122 929 1122 899 c 2,7,-1
 1122 869 l 1,8,9
 1117 839 1117 839 1095 773 c 1,10,11
 1077 766 1077 766 1040 767 c 2,12,-1
 879 771 l 2,13,14
 646 777 646 777 559 674 c 0,15,16
 495 598 495 598 495 509 c 0,17,18
 495 415 495 415 557.5 347.5 c 128,-1,19
 620 280 620 280 714 280 c 1,20,-1
 765 285 l 2,21,22
 794 291 794 291 820 306 c 0,23,24
 833 316 833 316 832 345 c 2,25,-1
 830 400 l 2,26,27
 826 521 826 521 969 544 c 1,28,29
 1037 544 1037 544 1100.5 482 c 128,-1,30
 1164 420 1164 420 1164 352 c 0,31,32
 1164 317 1164 317 1149 285 c 0,33,34
 1143 271 1143 271 1102 231 c 0,35,36
 1065 195 1065 195 1065 182 c 1,37,-1
 1079 151 l 1,38,39
 1106 111 1106 111 1184 16 c 0,40,41
 1297 -122 1297 -122 1297 -189 c 0,42,43
 1297 -227 1297 -227 1268 -264 c 0,44,45
 1251 -280 1251 -280 1226 -280 c 0,46,47
 1183 -280 1183 -280 1116 -239 c 0,48,49
 1044 -195 1044 -195 1044 -156 c 0,50,51
 1044 -126 1044 -126 1072.5 -101 c 128,-1,52
 1101 -76 1101 -76 1104 -60 c 0,53,54
 1104 -16 1104 -16 1006 120 c 1,55,-1
 988 139 l 2,56,57
 973 151 973 151 948 155 c 1,58,-1
 923 151 l 1,59,-1
 863 146 l 2,60,61
 851 145 851 145 837 145 c 0,62,63
 697 145 697 145 534 274 c 0,64,65
 361 411 361 411 339 609 c 1,66,67
 339 763 339 763 447 844 c 0,68,69
 544 918 544 918 703 916 c 2,70,-1
 806 915 l 2,71,72
 882 914 882 914 898 921 c 0,73,74
 927 933 927 933 943 993 c 1,75,-1
 943 1169 l 1,76,-1
 286 1169 l 1,77,-1
 286 1325 l 1,78,-1
 1282 1325 l 1,79,-1
 1282 1169 l 1,0,-1
EndSplineSet
Fore
SplineSet
238.5 1436.5 m 5,0,-1
 1038.5 1436.5 l 5,1,-1
 1230.5 1436.5 l 5,2,-1
 1306.5 1428.5 l 5,3,-1
 1330.5 1396.5 l 5,4,-1
 1362.5 1324.5 l 5,5,-1
 490.5 1324.5 l 5,6,-1
 490.5 748.5 l 5,7,8
 666.5 924.5 666.5 924.5 890.5 1060.5 c 6,9,-1
 994.5 1120.5 l 5,10,-1
 1010.5 1128.5 l 5,11,-1
 1046.5 1144.5 l 6,12,13
 1058.5 1148.5 1058.5 1148.5 1078.5 1128.5 c 6,14,-1
 1086.5 1120.5 l 5,15,-1
 1118.5 1088.5 l 5,16,-1
 1146.5 1056.5 l 5,17,-1
 1174.5 1016.5 l 6,18,19
 1182.5 996.5 1182.5 996.5 1162.5 972.5 c 6,20,-1
 1146.5 940.5 l 5,21,-1
 1130.5 908.5 l 6,22,23
 1082.5 800.5 1082.5 800.5 1062.5 668.5 c 4,24,25
 1030.5 424.5 1030.5 424.5 1114.5 208.5 c 6,26,-1
 1146.5 132.5 l 5,27,-1
 1150.5 120.5 l 5,28,-1
 1182.5 56.5 l 5,29,-1
 1114.5 92.5 l 5,30,-1
 1074.5 144.5 l 5,31,-1
 1018.5 252.5 l 6,32,33
 922.5 452.5 922.5 452.5 950.5 880.5 c 5,34,-1
 930.5 724.5 l 5,35,-1
 950.5 880.5 l 5,36,37
 726.5 716.5 726.5 716.5 606.5 596.5 c 6,38,-1
 566.5 552.5 l 5,39,-1
 526.5 508.5 l 5,40,-1
 514.5 496.5 l 5,41,-1
 490.5 480.5 l 5,42,-1
 458.5 500.5 l 5,43,-1
 446.5 516.5 l 5,44,-1
 422.5 544.5 l 6,45,46
 374.5 592.5 374.5 592.5 366.5 640.5 c 4,47,48
 358.5 788.5 358.5 788.5 366.5 1096.5 c 6,49,-1
 366.5 1324.5 l 5,50,-1
 294.5 1328.5 l 5,51,-1
 270.5 1364.5 l 5,52,-1
 238.5 1436.5 l 5,0,-1
EndSplineSet
EndChar

StartChar: at
Encoding: 64 64 35
Width: 7
Flags: W
LayerCount: 2
Fore
SplineSet
2722 -1200 m 1,0,-1
 2769 -1200 l 1,1,2
 2672 -1350 2672 -1350 2542 -1451 c 0,3,4
 2357 -1594 2357 -1594 2105.5 -1672 c 128,-1,5
 1854 -1750 1854 -1750 1584 -1750 c 0,6,7
 1189 -1750 1189 -1750 863 -1597.5 c 128,-1,8
 537 -1445 537 -1445 396 -1200 c 1,9,-1
 450 -1200 l 1,10,11
 537 -1322 537 -1322 687.5 -1400.5 c 128,-1,12
 838 -1479 838 -1479 1069 -1518 c 128,-1,13
 1300 -1557 1300 -1557 1551 -1557 c 0,14,15
 1824 -1557 1824 -1557 2047 -1524 c 0,16,17
 2223 -1498 2223 -1498 2329.5 -1461.5 c 128,-1,18
 2436 -1425 2436 -1425 2534 -1362.5 c 128,-1,19
 2632 -1300 2632 -1300 2722 -1200 c 1,0,-1
EndSplineSet
Validated: 1
EndChar

StartChar: D
Encoding: 68 68 39
Width: 1582
Flags: W
LayerCount: 2
Back
SplineSet
1381 1169 m 1,0,-1
 1265 1169 l 1,1,-1
 1265 68 l 2,2,3
 1265 -3 1265 -3 1252 -3 c 0,4,5
 1238 -3 1238 -3 1152 79 c 0,6,7
 1094 134 1094 134 1081 169 c 1,8,9
 1072 206 1072 206 1072 358 c 1,10,-1
 965 304 l 2,11,12
 884 263 884 263 795 263 c 0,13,14
 696 263 696 263 632 293 c 0,15,16
 575 319 575 319 499 394 c 0,17,18
 383 507 383 507 383 639 c 0,19,20
 383 696 383 696 414 731 c 2,21,-1
 476 801 l 1,22,23
 460 829 460 829 422 858 c 1,24,-1
 376 885 l 2,25,26
 354 898 354 898 345 906 c 0,27,28
 310 929 310 929 292 981 c 1,29,30
 280 1046 280 1046 280 1101 c 2,31,-1
 280 1123 l 2,32,33
 280 1169 280 1169 201 1169 c 1,34,-1
 201 1325 l 1,35,-1
 433 1325 l 1,36,-1
 528 1169 l 1,37,-1
 483 1169 l 1,38,-1
 454 1078 l 2,39,40
 445 1049 445 1049 445 1007 c 0,41,42
 445 911 445 911 538 838 c 1,43,44
 624 871 624 871 690 871 c 0,45,46
 758 871 758 871 808 811 c 2,47,-1
 837 776 l 2,48,49
 858 751 858 751 858 737 c 0,50,51
 858 711 858 711 792 711 c 0,52,53
 686 711 686 711 616 669 c 0,54,55
 532 618 532 618 532 519 c 0,56,57
 532 400 532 400 658 406 c 2,58,-1
 701 408 l 2,59,60
 818 413 818 413 940 486 c 0,61,62
 1045 549 1045 549 1092 622 c 1,63,-1
 1092 1169 l 1,64,-1
 744 1169 l 1,65,-1
 642 1325 l 1,66,-1
 1381 1325 l 1,67,-1
 1381 1169 l 1,0,-1
1224 -400 m 1,68,-1
 264 -400 l 1,69,-1
 264 -312 l 1,70,-1
 1224 -312 l 1,71,-1
 1224 -400 l 1,68,-1
EndSplineSet
Fore
SplineSet
1091.34960938 1616.59960938 m 5,0,-1
 1244.79980469 1473.04980469 l 5,1,-1
 1398.25 1458.20019531 l 5,2,-1
 1423 1418.59960938 l 5,3,-1
 1467.54980469 1324.54980469 l 5,4,-1
 1244.79980469 1324.54980469 l 5,5,-1
 1244.79980469 -244.599609375 l 5,6,-1
 1225 -234.700195312 l 6,7,8
 1190.34960938 -214.900390625 1190.34960938 -214.900390625 1175.5 -190.150390625 c 6,9,-1
 1170.54980469 -170.349609375 l 5,10,-1
 1165.59960938 -150.549804688 l 5,11,-1
 1160.65039062 -130.75 l 5,12,-1
 1130.95019531 -31.75 l 6,13,14
 1096.29980469 72.2001953125 1096.29980469 72.2001953125 987.400390625 186.049804688 c 4,15,16
 819.099609375 359.299804688 819.099609375 359.299804688 581.5 473.150390625 c 5,17,-1
 413.200195312 532.549804688 l 5,18,-1
 378.549804688 542.450195312 l 5,19,-1
 373.599609375 542.450195312 l 5,20,-1
 368.650390625 542.450195312 l 5,21,-1
 363.700195312 547.400390625 l 5,22,-1
 314.200195312 562.25 l 5,23,-1
 284.5 601.849609375 l 5,24,-1
 264.700195312 626.599609375 l 5,25,-1
 239.950195312 666.200195312 l 5,26,-1
 190.450195312 750.349609375 l 5,27,-1
 393.400390625 884 l 5,28,-1
 512.200195312 948.349609375 l 5,29,-1
 512.200195312 953.299804688 l 5,30,31
 353.799804688 958.25 353.799804688 958.25 319.150390625 1131.5 c 5,32,-1
 319.150390625 1136.45019531 l 5,33,-1
 314.200195312 1200.79980469 l 5,34,-1
 314.200195312 1210.70019531 l 5,35,-1
 314.200195312 1225.54980469 l 5,36,37
 338.950195312 1418.59960938 338.950195312 1418.59960938 502.299804688 1487.90039062 c 5,38,-1
 566.650390625 1502.75 l 5,39,-1
 606.25 1502.75 l 6,40,41
 685.450195312 1492.84960938 685.450195312 1492.84960938 725.049804688 1463.15039062 c 4,42,43
 804.25 1408.70019531 804.25 1408.70019531 794.349609375 1319.59960938 c 4,44,45
 794.349609375 1275.04980469 794.349609375 1275.04980469 764.650390625 1235.45019531 c 4,46,47
 725.049804688 1185.95019531 725.049804688 1185.95019531 650.799804688 1185.95019531 c 4,48,49
 591.400390625 1185.95019531 591.400390625 1185.95019531 546.849609375 1230.5 c 4,50,51
 512.200195312 1265.15039062 512.200195312 1265.15039062 512.200195312 1339.40039062 c 5,52,-1
 457.75 1289.90039062 l 5,53,54
 383.5 1181 383.5 1181 512.200195312 1096.84960938 c 6,55,-1
 561.700195312 1067.15039062 l 6,56,57
 631 1037.45019531 631 1037.45019531 675.549804688 1042.40039062 c 6,58,-1
 734.950195312 1062.20019531 l 5,59,-1
 779.5 1082 l 5,60,-1
 868.599609375 1116.65039062 l 5,61,-1
 952.75 1151.29980469 l 5,62,-1
 997.299804688 1171.09960938 l 5,63,-1
 1046.79980469 1185.95019531 l 5,64,-1
 1086.40039062 1210.70019531 l 5,65,-1
 1096.29980469 1275.04980469 l 5,66,-1
 1091.34960938 1299.79980469 l 5,67,-1
 1091.34960938 1334.45019531 l 5,68,-1
 1091.34960938 1616.59960938 l 5,0,-1
462.700195312 695.900390625 m 5,69,70
 541.900390625 681.049804688 541.900390625 681.049804688 655.75 601.849609375 c 4,71,72
 764.650390625 537.5 764.650390625 537.5 873.549804688 433.549804688 c 260,73,74
 982.450195312 329.599609375 982.450195312 329.599609375 1091.34960938 186.049804688 c 5,75,-1
 1091.34960938 1007.75 l 5,76,77
 848.799804688 923.599609375 848.799804688 923.599609375 640.900390625 804.799804688 c 6,78,-1
 581.5 775.099609375 l 5,79,-1
 512.200195312 735.5 l 5,80,-1
 462.700195312 695.900390625 l 5,69,70
1271 -400 m 1,81,-1
 311 -400 l 1,82,-1
 311 -300 l 1,83,-1
 1271 -300 l 1,84,-1
 1271 -400 l 1,81,-1
EndSplineSet
EndChar

StartChar: E
Encoding: 69 69 40
Width: 0
Flags: W
LayerCount: 2
Fore
SplineSet
1303 3639 m 1,0,-1
 1303 2498 l 1,1,-1
 1138 2498 l 1,2,-1
 1138 3309 l 1,3,-1
 1 3309 l 1,4,-1
 1 3640 l 1,5,-1
 1229 3640 l 1,6,-1
 1229 3639 l 1,7,-1
 1303 3639 l 1,0,-1
EndSplineSet
Validated: 1
EndChar

StartChar: G
Encoding: 71 71 42
Width: 1582
Flags: W
LayerCount: 2
Back
SplineSet
1397 1169 m 1,0,-1
 1291 1169 l 1,1,-1
 1291 59 l 2,2,3
 1291 -1 1291 -1 1262 -2 c 0,4,5
 1235 0 1235 0 1115 155 c 1,6,7
 1096 193 1096 193 1096 247 c 2,8,-1
 1096 1169 l 1,9,-1
 625 1169 l 1,10,-1
 686 891 l 2,11,12
 715 760 715 760 715 660 c 0,13,14
 715 525 715 525 650 445 c 0,15,16
 604 389 604 389 533 389 c 1,17,18
 432 400 432 400 340 528 c 0,19,20
 257 643 257 643 246 750 c 1,21,22
 246 830 246 830 300 830 c 0,23,24
 336 830 336 830 385 797 c 0,25,26
 419 774 419 774 442 774 c 0,27,28
 518 773 518 773 518 979 c 0,29,30
 518 1040 518 1040 509 1097 c 2,31,-1
 498 1169 l 1,32,-1
 186 1169 l 1,33,-1
 186 1325 l 1,34,-1
 1397 1325 l 1,35,-1
 1397 1169 l 1,0,-1
1209 -400 m 1,36,-1
 249 -400 l 1,37,-1
 249 -312 l 1,38,-1
 1209 -312 l 1,39,-1
 1209 -400 l 1,36,-1
EndSplineSet
Fore
SplineSet
1097.5703125 1616.25585938 m 1,0,-1
 1250.79882812 1472.91308594 l 1,1,-1
 1404.02734375 1458.08496094 l 1,2,-1
 1428.7421875 1418.54199219 l 1,3,-1
 1473.2265625 1324.62695312 l 1,4,-1
 1250.79882812 1324.62695312 l 1,5,-1
 1250.79882812 -242.255859375 l 1,6,-1
 1201.37109375 -207.65625 l 1,7,-1
 1151.94238281 -173.055664062 l 1,8,-1
 1137.11425781 -158.227539062 l 1,9,-1
 1132.17089844 -158.227539062 l 1,10,-1
 1127.22753906 -153.284179688 l 1,11,-1
 1102.51269531 -128.5703125 l 1,12,-1
 1097.5703125 -89.0263671875 l 1,13,-1
 1097.5703125 -64.3134765625 l 1,14,-1
 1097.5703125 -44.5419921875 l 1,15,-1
 1097.5703125 123.515625 l 1,16,-1
 1097.5703125 731.485351562 l 1,17,-1
 1097.5703125 899.54296875 l 1,18,-1
 1097.5703125 924.256835938 l 1,19,-1
 1097.5703125 929.200195312 l 1,20,-1
 1097.5703125 934.142578125 l 1,21,-1
 1092.62890625 988.514648438 l 2,22,23
 1087.68652344 1023.11425781 1087.68652344 1023.11425781 1033.31347656 1067.59960938 c 2,24,-1
 1008.59863281 1092.31347656 l 1,25,-1
 934.45703125 1161.51367188 l 1,26,-1
 885.02734375 1206 l 1,27,28
 667.543945312 1374.05664062 667.543945312 1374.05664062 529.143554688 1339.45507812 c 2,29,-1
 484.65625 1324.62695312 l 1,30,-1
 425.34375 1290.02734375 l 1,31,-1
 400.629882812 1265.3125 l 1,32,-1
 366.029296875 1215.88476562 l 1,33,-1
 336.372070312 1136.79882812 l 1,34,-1
 331.4296875 1097.25683594 l 1,35,36
 435.228515625 1126.9140625 435.228515625 1126.9140625 543.971679688 1126.9140625 c 2,37,-1
 662.599609375 1107.14257812 l 1,38,-1
 741.686523438 1062.65625 l 1,39,-1
 791.114257812 1008.28515625 l 2,40,41
 845.485351562 924.256835938 845.485351562 924.256835938 830.657226562 825.400390625 c 0,42,43
 815.829101562 716.657226562 815.829101562 716.657226562 736.7421875 588.143554688 c 0,44,45
 697.200195312 514.000976562 697.200195312 514.000976562 628.000976562 439.857421875 c 2,46,-1
 613.171875 425.028320312 l 1,47,-1
 608.227539062 420.0859375 l 1,48,-1
 588.45703125 405.2578125 l 1,49,-1
 568.686523438 400.314453125 l 2,50,51
 553.857421875 390.4296875 553.857421875 390.4296875 529.143554688 415.143554688 c 2,52,-1
 519.2578125 420.0859375 l 1,53,-1
 430.286132812 479.401367188 l 1,54,-1
 430.286132812 484.34375 l 1,55,56
 593.400390625 647.456054688 593.400390625 647.456054688 657.657226562 805.629882812 c 2,57,-1
 667.543945312 830.342773438 l 1,58,-1
 682.37109375 879.772460938 l 2,59,60
 692.2578125 929.200195312 692.2578125 929.200195312 677.428710938 953.9140625 c 0,61,62
 642.830078125 1028.05664062 642.830078125 1028.05664062 534.0859375 1008.28515625 c 2,63,-1
 455.000976562 978.62890625 l 1,64,-1
 450.057617188 978.62890625 l 1,65,-1
 445.115234375 973.686523438 l 1,66,-1
 420.400390625 963.799804688 l 1,67,-1
 370.971679688 934.142578125 l 1,68,-1
 341.314453125 919.314453125 l 1,69,-1
 306.71484375 904.486328125 l 1,70,-1
 282 894.599609375 l 1,71,-1
 242.45703125 884.713867188 l 1,72,-1
 193.029296875 889.65625 l 1,73,-1
 173.2578125 919.314453125 l 1,74,-1
 163.373046875 934.142578125 l 1,75,-1
 133.715820312 1042.88476562 l 1,76,-1
 128.772460938 1117.02832031 l 1,77,78
 148.544921875 1324.62695312 148.544921875 1324.62695312 390.743164062 1423.48535156 c 0,79,80
 450.057617188 1448.19824219 450.057617188 1448.19824219 632.942382812 1463.02636719 c 2,81,-1
 514.314453125 1458.08496094 l 1,82,-1
 632.942382812 1463.02636719 l 2,83,84
 702.143554688 1453.14257812 702.143554688 1453.14257812 786.170898438 1408.65625 c 0,85,86
 919.62890625 1344.40039062 919.62890625 1344.40039062 1097.5703125 1156.5703125 c 1,87,-1
 1097.5703125 1616.25585938 l 1,0,-1
1272 -400 m 1,88,-1
 312 -400 l 1,89,-1
 312 -300 l 1,90,-1
 1272 -300 l 1,91,-1
 1272 -400 l 1,88,-1
EndSplineSet
EndChar

StartChar: L
Encoding: 76 76 47
Width: 0
Flags: W
LayerCount: 2
Fore
SplineSet
-428 -824 m 1,0,-1
 -492 -902 l 1,1,-1
 -544 -960 l 1,2,3
 -566 -972 -566 -972 -578 -972 c 0,4,5
 -594 -972 -594 -972 -662 -892 c 2,6,-1
 -725 -820 l 1,7,-1
 -725 -783 l 1,8,-1
 -650 -681 l 2,9,10
 -622 -643 -622 -643 -594 -627 c 1,11,12
 -566 -627 -566 -627 -428 -783 c 1,13,-1
 -426 -804 l 1,14,-1
 -428 -824 l 1,0,-1
-873 -824 m 1,15,-1
 -937 -902 l 1,16,-1
 -989 -960 l 1,17,18
 -1011 -972 -1011 -972 -1023 -972 c 0,19,20
 -1039 -972 -1039 -972 -1107 -892 c 2,21,-1
 -1170 -820 l 1,22,-1
 -1170 -783 l 1,23,-1
 -1095 -681 l 2,24,25
 -1067 -643 -1067 -643 -1039 -627 c 1,26,27
 -1011 -627 -1011 -627 -873 -783 c 1,28,-1
 -871 -804 l 1,29,-1
 -873 -824 l 1,15,-1
EndSplineSet
Validated: 1
EndChar

StartChar: M
Encoding: 77 77 48
Width: 1582
Flags: W
LayerCount: 2
Back
SplineSet
1394 1169 m 1,0,-1
 1253 1169 l 1,1,-1
 1253 56 l 1,2,3
 1257 -4 1257 -4 1230 0 c 1,4,5
 1205 -4 1205 -4 1137.5 68 c 128,-1,6
 1070 140 1070 140 1062 176 c 1,7,-1
 1062 529 l 1,8,-1
 659 529 l 1,9,10
 624 512 624 512 627 480 c 2,11,-1
 631 432 l 1,12,-1
 631 407 l 2,13,14
 631 390 631 390 627 372 c 1,15,16
 627 347 627 347 596 330 c 0,17,18
 569 315 569 315 542 315 c 0,19,20
 488 315 488 315 431 379 c 2,21,-1
 340 482 l 1,22,23
 251 557 251 557 251 626 c 0,24,25
 251 712 251 712 338 712 c 2,26,-1
 376 712 l 1,27,-1
 405 714 l 1,28,-1
 434 724 l 1,29,-1
 434 1169 l 1,30,-1
 189 1169 l 1,31,-1
 189 1325 l 1,32,-1
 1394 1325 l 1,33,-1
 1394 1169 l 1,0,-1
1068 706 m 1,34,-1
 1068 1169 l 1,35,-1
 618 1169 l 1,36,-1
 618 706 l 1,37,-1
 1068 706 l 1,34,-1
887 1370 m 1,38,-1
 791 1370 l 1,39,-1
 791 2058 l 1,40,-1
 887 2058 l 1,41,-1
 887 1370 l 1,38,-1
EndSplineSet
Fore
SplineSet
134 1436.5 m 1,0,-1
 1030 1436.5 l 1,1,-1
 1234 1436.5 l 1,2,-1
 1318 1428.5 l 1,3,-1
 1342 1396.5 l 1,4,-1
 1374 1324.5 l 1,5,-1
 1194 1324.5 l 1,6,-1
 1194 56.5 l 1,7,-1
 1178 64.5 l 2,8,9
 1150 80.5 1150 80.5 1138 100.5 c 2,10,-1
 1126 136.5 l 1,11,-1
 1126 156.5 l 1,12,-1
 1122 172.5 l 1,13,-1
 1110 212.5 l 1,14,-1
 1078 292.5 l 1,15,16
 990 452.5 990 452.5 802 568.5 c 1,17,18
 770 496.5 770 496.5 722 456.5 c 0,19,20
 682 424.5 682 424.5 634 412.5 c 2,21,-1
 550 404.5 l 1,22,23
 410 424.5 410 424.5 362 556.5 c 0,24,25
 342 604.5 342 604.5 350 652.5 c 0,26,27
 354 716.5 354 716.5 390 768.5 c 0,28,29
 406 792.5 406 792.5 454 828.5 c 0,30,31
 502 860.5 502 860.5 554 864.5 c 0,32,33
 602 868.5 602 868.5 666 852.5 c 1,34,-1
 670 852.5 l 1,35,-1
 674 848.5 l 1,36,-1
 722 836.5 l 1,37,-1
 726 860.5 l 1,38,-1
 730 892.5 l 1,39,-1
 726 952.5 l 2,40,41
 710 1020.5 710 1020.5 626 1076.5 c 2,42,-1
 474 1152.5 l 1,43,-1
 398 1184.5 l 2,44,45
 338 1212.5 338 1212.5 290 1260.5 c 2,46,-1
 278 1276.5 l 1,47,-1
 278 1280.5 l 1,48,-1
 274 1288.5 l 1,49,-1
 254 1312.5 l 1,50,-1
 222 1324.5 l 1,51,-1
 222 1324.5 l 1,52,-1
 190 1332.5 l 1,53,-1
 170 1356.5 l 1,54,-1
 166 1364.5 l 1,55,-1
 150 1400.5 l 1,56,-1
 134 1436.5 l 1,0,-1
526 1320.5 m 1,57,58
 566 1296.5 566 1296.5 626 1232.5 c 1,59,-1
 630 1224.5 l 1,60,-1
 646 1208.5 l 2,61,62
 778 1060.5 778 1060.5 834 904.5 c 2,63,-1
 858 812.5 l 1,64,-1
 858 800.5 l 1,65,-1
 866 752.5 l 1,66,-1
 886 728.5 l 1,67,-1
 890 724.5 l 1,68,-1
 898 716.5 l 1,69,-1
 946 664.5 l 2,70,71
 994 616.5 994 616.5 1042 536.5 c 2,72,-1
 1070 492.5 l 1,73,-1
 1070 1324.5 l 1,74,-1
 526 1324.5 l 1,75,-1
 526 1320.5 l 1,57,58
844 2060 m 1,76,-1
 844 1510 l 1,77,-1
 744 1510 l 1,78,-1
 744 2060 l 1,79,-1
 844 2060 l 1,76,-1
EndSplineSet
EndChar

StartChar: N
Encoding: 78 78 49
Width: 1582
Flags: W
LayerCount: 2
Back
SplineSet
1093 1168 m 1,0,-1
 1004 1168 l 1,1,-1
 1004 75 l 2,2,3
 1005 1 1005 1 980 0 c 0,4,5
 954 -1 954 -1 883 73 c 2,6,-1
 832 130 l 2,7,8
 806 159 806 159 801 188 c 1,9,-1
 802 639 l 1,10,-1
 489 639 l 2,11,12
 454 639 454 639 424 614 c 0,13,14
 404 598 404 598 400 566 c 1,15,-1
 404 548 l 1,16,17
 434 455 434 455 434 401 c 0,18,19
 434 336 434 336 402 325 c 1,20,-1
 342 318 l 1,21,22
 282 318 282 318 223 364 c 1,23,-1
 158 428 l 2,24,25
 59 525 59 525 59 634 c 0,26,27
 59 816 59 816 324 808 c 1,28,-1
 823 807 l 1,29,-1
 823 1168 l 1,30,-1
 0 1168 l 1,31,-1
 0 1325 l 1,32,-1
 1093 1325 l 1,33,-1
 1093 1168 l 1,0,-1
1582 1169 m 1,34,-1
 1433 1169 l 1,35,-1
 1434 20 l 2,36,37
 1434 -6 1434 -6 1423 -6 c 0,38,39
 1414 -6 1414 -6 1394 8 c 2,40,-1
 1339 58 l 1,41,-1
 1285 112 l 2,42,43
 1262 135 1262 135 1257 166 c 1,44,-1
 1257 1169 l 1,45,-1
 1095 1169 l 1,46,-1
 1095 1325 l 1,47,-1
 1283 1325 l 1,48,-1
 1286 1365 l 2,49,50
 1291 1433 1291 1433 1252 1520 c 2,51,-1
 1211 1611 l 2,52,53
 1181 1677 1181 1677 1114.5 1721.5 c 128,-1,54
 1048 1766 1048 1766 976 1766 c 0,55,56
 945 1766 945 1766 917 1757 c 0,57,58
 769 1710 769 1710 777 1492 c 2,59,-1
 779 1439 l 2,60,61
 781 1394 781 1394 753 1394 c 0,62,63
 700 1393 700 1393 639 1497 c 0,64,65
 582 1594 582 1594 582 1653 c 0,66,67
 582 1742 582 1742 640 1828 c 0,68,69
 727 1956 727 1956 890 1956 c 0,70,71
 1075 1956 1075 1956 1187 1807 c 0,72,73
 1242 1733 1242 1733 1283 1642 c 0,74,75
 1318 1565 1318 1565 1378 1325 c 1,76,-1
 1582 1325 l 1,77,-1
 1582 1169 l 1,34,-1
1299 -400 m 1,78,-1
 339 -400 l 1,79,-1
 339 -312 l 1,80,-1
 1299 -312 l 1,81,-1
 1299 -400 l 1,78,-1
EndSplineSet
Fore
SplineSet
1322.41015625 1325.27734375 m 1,0,-1
 1050.921875 1325.27734375 l 1,1,-1
 1029.71191406 1325.27734375 l 1,2,-1
 1004.25976562 1325.27734375 l 2,3,4
 966.08203125 1325.27734375 966.08203125 1325.27734375 953.35546875 1338.00390625 c 2,5,-1
 940.629882812 1350.73046875 l 1,6,-1
 932.145507812 1367.69824219 l 1,7,-1
 919.419921875 1388.90820312 l 2,8,9
 902.452148438 1414.36035156 902.452148438 1414.36035156 906.694335938 1431.328125 c 0,10,11
 906.694335938 1444.0546875 906.694335938 1444.0546875 915.177734375 1465.26464844 c 2,12,-1
 919.419921875 1482.23242188 l 1,13,-1
 923.662109375 1503.44238281 l 2,14,15
 923.662109375 1541.62011719 923.662109375 1541.62011719 893.967773438 1567.07226562 c 0,16,17
 860.032226562 1592.52441406 860.032226562 1592.52441406 800.64453125 1613.734375 c 0,18,19
 783.67578125 1617.97558594 783.67578125 1617.97558594 753.982421875 1626.45996094 c 0,20,21
 686.110351562 1643.42773438 686.110351562 1643.42773438 567.333984375 1651.91210938 c 2,22,-1
 563.091796875 1651.91210938 l 1,23,-1
 546.124023438 1651.91210938 l 2,24,25
 304.330078125 1664.63769531 304.330078125 1664.63769531 206.764648438 1745.23535156 c 0,26,27
 164.344726562 1783.4140625 164.344726562 1783.4140625 134.650390625 1821.59179688 c 0,28,29
 117.682617188 1851.28515625 117.682617188 1851.28515625 109.198242188 1885.22265625 c 0,30,31
 66.77734375 2042.17578125 66.77734375 2042.17578125 253.42578125 2131.2578125 c 1,32,-1
 304.330078125 2148.22558594 l 1,33,-1
 312.814453125 2152.46777344 l 1,34,35
 431.58984375 2182.16210938 431.58984375 2182.16210938 571.575195312 2169.43554688 c 0,36,37
 966.08203125 2143.984375 966.08203125 2143.984375 1233.328125 1851.28515625 c 0,38,39
 1250.29589844 1830.07519531 1250.29589844 1830.07519531 1267.26464844 1813.10742188 c 0,40,41
 1415.734375 1630.70214844 1415.734375 1630.70214844 1436.94433594 1444.0546875 c 1,42,-1
 1538.75195312 1444.0546875 l 1,43,-1
 1585.4140625 1435.5703125 l 1,44,-1
 1610.86523438 1401.63476562 l 1,45,-1
 1644.80175781 1325.27734375 l 1,46,-1
 1453.91210938 1325.27734375 l 1,47,-1
 1453.91210938 -19.435546875 l 1,48,-1
 1369.07226562 39.9521484375 l 1,49,-1
 1330.89453125 73.8876953125 l 1,50,-1
 1322.41015625 171.454101562 l 1,51,-1
 1322.41015625 404.764648438 l 1,52,-1
 1322.41015625 1325.27734375 l 1,0,-1
1335.13574219 1444.0546875 m 1,53,54
 1335.13574219 1511.92578125 1335.13574219 1511.92578125 1313.92578125 1596.765625 c 0,55,56
 1229.0859375 1893.70605469 1229.0859375 1893.70605469 881.2421875 2012.48242188 c 0,57,58
 792.16015625 2046.41796875 792.16015625 2046.41796875 694.594726562 2059.14453125 c 0,59,60
 686.110351562 2059.14453125 686.110351562 2059.14453125 677.625976562 2059.14453125 c 2,61,-1
 554.607421875 2063.38574219 l 2,62,63
 414.622070312 2059.14453125 414.622070312 2059.14453125 321.297851562 2008.24023438 c 0,64,65
 215.248046875 1944.61035156 215.248046875 1944.61035156 211.005859375 1847.04394531 c 0,66,67
 211.005859375 1800.38183594 211.005859375 1800.38183594 274.635742188 1783.4140625 c 2,68,-1
 372.202148438 1766.4453125 l 1,69,-1
 469.767578125 1762.20410156 l 2,70,71
 495.219726562 1762.20410156 495.219726562 1762.20410156 516.4296875 1762.20410156 c 0,72,73
 758.224609375 1749.47753906 758.224609375 1749.47753906 910.935546875 1622.21777344 c 0,74,75
 1016.98535156 1541.62011719 1016.98535156 1541.62011719 1029.71191406 1444.0546875 c 1,76,-1
 1335.13574219 1444.0546875 l 1,53,54
-51 1448.5 m 1,77,-1
 934.599609375 1448.5 l 1,78,-1
 1159 1448.5 l 1,79,-1
 1251.40039062 1439.70019531 l 1,80,-1
 1277.79980469 1404.5 l 1,81,-1
 1313 1325.29980469 l 1,82,-1
 1115 1325.29980469 l 1,83,-1
 1115 -69.5 l 1,84,-1
 1093 -56.2998046875 l 2,85,86
 1062.20019531 -38.7001953125 1062.20019531 -38.7001953125 1053.40039062 -21.099609375 c 2,87,-1
 1044.59960938 22.900390625 l 1,88,-1
 1044.59960938 36.099609375 l 1,89,-1
 1040.20019531 66.900390625 l 1,90,-1
 1005 220.900390625 l 2,91,92
 934.599609375 454.099609375 934.599609375 454.099609375 771.799804688 621.299804688 c 0,93,94
 648.599609375 735.700195312 648.599609375 735.700195312 516.599609375 744.5 c 1,95,96
 565 687.299804688 565 687.299804688 578.200195312 630.099609375 c 0,97,98
 582.599609375 590.5 582.599609375 590.5 578.200195312 550.900390625 c 0,99,100
 560.599609375 405.700195312 560.599609375 405.700195312 415.400390625 370.5 c 1,101,-1
 336.200195312 361.700195312 l 2,102,103
 265.799804688 366.099609375 265.799804688 366.099609375 213 405.700195312 c 0,104,105
 177.799804688 436.5 177.799804688 436.5 155.799804688 471.700195312 c 0,106,107
 120.599609375 533.299804688 120.599609375 533.299804688 125 616.900390625 c 0,108,109
 133.799804688 762.099609375 133.799804688 762.099609375 243.799804688 850.099609375 c 0,110,111
 340.599609375 933.700195312 340.599609375 933.700195312 463.799804688 924.900390625 c 0,112,113
 679.400390625 916.099609375 679.400390625 916.099609375 890.599609375 625.700195312 c 1,114,-1
 877.400390625 647.700195312 l 2,115,116
 881.799804688 634.5 881.799804688 634.5 890.599609375 625.700195312 c 2,117,-1
 908.200195312 594.900390625 l 2,118,119
 961 520.099609375 961 520.099609375 974.200195312 476.099609375 c 1,120,-1
 978.599609375 476.099609375 l 1,121,-1
 978.599609375 1325.29980469 l 1,122,-1
 287.799804688 1325.29980469 l 1,123,-1
 98.599609375 1325.29980469 l 1,124,-1
 10.599609375 1329.70019531 l 1,125,-1
 -15.7998046875 1369.29980469 l 1,126,-1
 -51 1448.5 l 1,77,-1
1273 -400 m 1,127,-1
 313 -400 l 1,128,-1
 313 -300 l 1,129,-1
 1273 -300 l 1,130,-1
 1273 -400 l 1,127,-1
EndSplineSet
EndChar

StartChar: Q
Encoding: 81 81 52
Width: 0
Flags: W
LayerCount: 2
Fore
SplineSet
271 3639 m 1,0,-1
 271 3640 l 1,1,-1
 1499 3640 l 1,2,-1
 1499 3309 l 1,3,-1
 362 3309 l 1,4,-1
 362 2498 l 1,5,-1
 197 2498 l 1,6,-1
 197 3639 l 1,7,-1
 271 3639 l 1,0,-1
EndSplineSet
Validated: 1
EndChar

StartChar: R
Encoding: 82 82 53
Width: 1582
Flags: W
LayerCount: 2
Back
SplineSet
955 1489 m 2,0,1
 1002 1433 1002 1433 1002 1399 c 0,2,3
 1002 1382 1002 1382 985 1379 c 0,4,5
 952 1379 952 1379 910 1433 c 2,6,-1
 769 1613 l 2,7,8
 739 1651 739 1651 683 1684 c 0,9,10
 652 1698 652 1698 623 1698 c 1,11,-1
 580 1692 l 1,12,-1
 536 1685 l 1,13,-1
 508 1680 l 1,14,-1
 479 1678 l 2,15,16
 432 1675 432 1675 358 1777 c 2,17,-1
 324 1824 l 2,18,19
 297 1861 297 1861 297 1877 c 0,20,21
 296 1907 296 1907 368 1907 c 0,22,23
 606 1907 606 1907 789 1688 c 2,24,-1
 955 1489 l 2,0,1
1287 1169 m 1,25,-1
 1019 1169 l 1,26,27
 1019 1139 1019 1139 1021 1108 c 0,28,29
 1023 1086 1023 1086 1027 1028 c 2,30,-1
 1036 889 l 2,31,32
 1038 858 1038 858 1038 839 c 0,33,34
 1038 646 1038 646 942 507 c 0,35,36
 903 450 903 450 903 402 c 0,37,38
 903 363 903 363 928 336 c 0,39,40
 1003 253 1003 253 1075 204 c 2,41,-1
 1234 95 l 2,42,43
 1287 59 1287 59 1287 -1 c 0,44,45
 1287 -50 1287 -50 1246 -50 c 0,46,47
 1220 -50 1220 -50 1190 -25 c 2,48,-1
 1013 122 l 1,49,-1
 840 274 l 2,50,51
 769 336 769 336 678 448 c 0,52,53
 667 461 667 461 632 510 c 0,54,55
 595 556 595 556 533 656 c 0,56,57
 525 673 525 673 520 689 c 2,58,-1
 511 747 l 1,59,60
 511 859 511 859 597 859 c 0,61,62
 625 859 625 859 682 833.5 c 128,-1,63
 739 808 739 808 768 808 c 0,64,65
 792 808 792 808 807 816 c 1,66,67
 850 879 850 879 850 994 c 0,68,69
 850 1061 850 1061 840 1115 c 0,70,71
 838 1144 838 1144 830 1169 c 1,72,-1
 452 1169 l 1,73,-1
 452 1325 l 1,74,-1
 1287 1325 l 1,75,-1
 1287 1169 l 1,25,-1
1269 -400 m 1,76,-1
 456 -400 l 1,77,-1
 456 -312 l 1,78,-1
 1269 -312 l 1,79,-1
 1269 -400 l 1,76,-1
EndSplineSet
Fore
SplineSet
-16.9716796875 1448.24804688 m 5,0,-1
 479.978515625 1448.24804688 l 5,1,-1
 610.9921875 1448.24804688 l 5,2,-1
 669.723632812 1439.21289062 l 5,3,-1
 696.829101562 1403.0703125 l 5,4,-1
 732.971679688 1321.75195312 l 5,5,-1
 701.346679688 1321.75195312 l 5,6,-1
 669.723632812 1321.75195312 l 5,7,-1
 606.473632812 1317.234375 l 5,8,-1
 520.637695312 1272.05664062 l 6,9,10
 430.283203125 1213.32714844 430.283203125 1213.32714844 353.481445312 1122.97265625 c 4,11,12
 213.43359375 946.780273438 213.43359375 946.780273438 190.844726562 707.341796875 c 5,13,-1
 195.362304688 544.704101562 l 6,14,15
 204.396484375 314.299804688 204.396484375 314.299804688 303.788085938 165.21484375 c 5,16,17
 330.893554688 210.391601562 330.893554688 210.391601562 367.034179688 242.016601562 c 6,18,-1
 430.283203125 269.123046875 l 5,19,20
 565.814453125 305.264648438 565.814453125 305.264648438 642.6171875 187.803710938 c 4,21,22
 692.311523438 111.002929688 692.311523438 111.002929688 665.205078125 25.1650390625 c 6,23,-1
 656.169921875 2.5771484375 l 6,24,25
 642.6171875 -24.529296875 642.6171875 -24.529296875 624.545898438 -42.6005859375 c 4,26,27
 556.780273438 -119.401367188 556.780273438 -119.401367188 443.836914062 -105.848632812 c 4,28,29
 344.446289062 -96.8125 344.446289062 -96.8125 267.645507812 -29.046875 c 4,30,31
 199.879882812 34.2021484375 199.879882812 34.2021484375 154.703125 156.180664062 c 6,32,-1
 136.631835938 214.911132812 l 6,33,34
 100.489257812 359.4765625 100.489257812 359.4765625 91.4541015625 535.66796875 c 4,35,36
 77.9013671875 811.25 77.9013671875 811.25 141.149414062 1010.02929688 c 4,37,38
 186.327148438 1141.04296875 186.327148438 1141.04296875 303.788085938 1321.75195312 c 5,39,-1
 123.079101562 1321.75195312 l 5,40,-1
 46.2763671875 1330.78808594 l 5,41,-1
 19.1708984375 1366.9296875 l 5,42,-1
 -16.9716796875 1448.24804688 l 5,0,-1
481.461914062 1448.62304688 m 5,43,-1
 1250.53027344 1448.62304688 l 5,44,-1
 1463.90625 1448.62304688 l 5,45,-1
 1548.3671875 1439.73242188 l 5,46,-1
 1575.0390625 1404.16992188 l 5,47,-1
 1610.60351562 1324.15429688 l 5,48,-1
 1410.5625 1324.15429688 l 5,49,-1
 1410.5625 -85.0185546875 l 5,50,-1
 1392.78027344 -76.1279296875 l 6,51,52
 1353.33886719 -56.171875 1353.33886719 -56.171875 1348.32714844 -36.119140625 c 6,53,-1
 1343.8828125 -18.337890625 l 5,54,-1
 1339.4375 -0.5576171875 l 5,55,-1
 1334.99121094 17.224609375 l 5,56,-1
 1308.3203125 106.131835938 l 6,57,58
 1281 197 1281 197 1179.40429688 301.725585938 c 4,59,60
 1028 457 1028 457 814.885742188 559.555664062 c 5,61,-1
 663.745117188 612.899414062 l 5,62,-1
 632.627929688 621.790039062 l 5,63,-1
 628.182617188 621.790039062 l 5,64,-1
 623.737304688 621.790039062 l 5,65,-1
 619.291992188 626.235351562 l 5,66,-1
 574.837890625 639.572265625 l 5,67,-1
 548.166015625 675.133789062 l 5,68,-1
 530.385742188 697.361328125 l 5,69,-1
 508.159179688 732.923828125 l 5,70,-1
 463.705078125 808.494140625 l 5,71,72
 819.40234375 1038.25976562 819.40234375 1038.25976562 943.801757812 1088.54980469 c 6,73,-1
 1152.73339844 1173.01269531 l 5,74,-1
 1188.29589844 1186.34960938 l 5,75,-1
 1206.07617188 1190.79394531 l 5,76,-1
 1259.41992188 1213.02050781 l 6,77,78
 1277.20214844 1220.08007812 1277.20214844 1220.08007812 1277.20214844 1275.25488281 c 6,79,-1
 1277.20214844 1279.70019531 l 5,80,-1
 1277.20214844 1284.14550781 l 5,81,-1
 1277.20214844 1288.58984375 l 5,82,-1
 1272.75585938 1297.48242188 l 5,83,-1
 1272.75585938 1324.15429688 l 5,84,-1
 788.190429688 1324.15429688 l 5,85,-1
 619.268554688 1324.15429688 l 5,86,-1
 543.698242188 1328.59960938 l 5,87,-1
 517.025390625 1368.60742188 l 5,88,-1
 481.461914062 1448.62304688 l 5,43,-1
708.19921875 759.595703125 m 5,89,90
 779.32421875 746.259765625 779.32421875 746.259765625 881.56640625 675.133789062 c 4,91,92
 979.364257812 617.344726562 979.364257812 617.344726562 1077.16113281 523.9921875 c 260,93,94
 1174.95996094 430.640625 1174.95996094 430.640625 1272.75585938 301.725585938 c 5,95,-1
 1272.75585938 1039.65234375 l 5,96,97
 1054.93554688 964.08203125 1054.93554688 964.08203125 868.232421875 857.393554688 c 6,98,-1
 814.885742188 830.720703125 l 5,99,-1
 752.65234375 795.159179688 l 5,100,-1
 708.19921875 759.595703125 l 5,89,90
837.088867188 346.178710938 m 6,101,-1
 863.76171875 350.625 l 5,102,-1
 894.87890625 346.178710938 l 6,103,104
 988 333 988 333 992.67578125 221.709960938 c 4,105,106
 997 115.002929688 997 115.002929688 890.432617188 97.2412109375 c 6,107,-1
 863.76171875 92.7958984375 l 5,108,-1
 832.645507812 97.2412109375 l 6,109,110
 740 110 740 110 734.845703125 221.709960938 c 4,111,112
 730 328 730 328 837.088867188 346.178710938 c 6,101,-1
1273 -400 m 1,113,-1
 313 -400 l 1,114,-1
 313 -300 l 1,115,-1
 1273 -300 l 1,116,-1
 1273 -400 l 1,113,-1
EndSplineSet
EndChar

StartChar: U
Encoding: 85 85 56
Width: 0
Flags: W
LayerCount: 2
Fore
SplineSet
-406 2303 m 1,0,-1
 -470 2225 l 1,1,-1
 -522 2167 l 1,2,3
 -544 2155 -544 2155 -556 2155 c 0,4,5
 -572 2155 -572 2155 -640 2235 c 2,6,-1
 -703 2307 l 1,7,-1
 -703 2344 l 1,8,-1
 -628 2446 l 2,9,10
 -600 2484 -600 2484 -572 2500 c 1,11,12
 -544 2500 -544 2500 -406 2344 c 1,13,-1
 -404 2323 l 1,14,-1
 -406 2303 l 1,0,-1
-889 2303 m 1,15,-1
 -953 2225 l 1,16,-1
 -1005 2167 l 1,17,18
 -1027 2155 -1027 2155 -1039 2155 c 0,19,20
 -1055 2155 -1055 2155 -1123 2235 c 2,21,-1
 -1186 2307 l 1,22,-1
 -1186 2344 l 1,23,-1
 -1111 2446 l 2,24,25
 -1083 2484 -1083 2484 -1055 2500 c 1,26,27
 -1027 2500 -1027 2500 -889 2344 c 1,28,-1
 -887 2323 l 1,29,-1
 -889 2303 l 1,15,-1
EndSplineSet
Validated: 1
EndChar

StartChar: W
Encoding: 87 87 58
Width: 0
Flags: W
LayerCount: 2
Fore
SplineSet
-46 3643 m 1,0,-1
 1547 3643 l 1,1,-1
 1565 3625 l 1,2,-1
 1565 3328 l 1,3,-1
 1547 3310 l 1,4,-1
 917 3310 l 1,5,-1
 917 3166 l 1,6,-1
 899 3148 l 1,7,-1
 602 3148 l 1,8,-1
 584 3166 l 1,9,-1
 584 3310 l 1,10,-1
 -46 3310 l 1,11,-1
 -64 3328 l 1,12,-1
 -64 3625 l 1,13,-1
 -46 3643 l 1,0,-1
602 2995 m 1,14,-1
 899 2995 l 1,15,-1
 917 2977 l 1,16,-1
 917 2842 l 1,17,-1
 899 2824 l 1,18,-1
 602 2824 l 1,19,-1
 584 2842 l 1,20,-1
 584 2977 l 1,21,-1
 602 2995 l 1,14,-1
602 2671 m 1,22,-1
 899 2671 l 1,23,-1
 917 2653 l 1,24,-1
 917 2518 l 1,25,-1
 899 2500 l 1,26,-1
 602 2500 l 1,27,-1
 584 2518 l 1,28,-1
 584 2653 l 1,29,-1
 602 2671 l 1,22,-1
EndSplineSet
Validated: 1
EndChar

StartChar: bracketleft
Encoding: 91 91 62
Width: 1582
Flags: W
LayerCount: 2
Back
SplineSet
1038 1169 m 1,0,-1
 862 1169 l 1,1,2
 849 1136 849 1136 849 1109 c 0,3,4
 849 1083 849 1083 867 987 c 0,5,6
 878 929 878 929 878 899 c 2,7,-1
 878 869 l 1,8,9
 873 839 873 839 851 773 c 1,10,11
 833 766 833 766 796 767 c 2,12,-1
 635 771 l 2,13,14
 402 777 402 777 315 674 c 0,15,16
 251 598 251 598 251 509 c 0,17,18
 251 415 251 415 313.5 347.5 c 128,-1,19
 376 280 376 280 470 280 c 1,20,-1
 521 285 l 2,21,22
 550 291 550 291 576 306 c 0,23,24
 589 316 589 316 588 345 c 2,25,-1
 586 400 l 2,26,27
 582 521 582 521 725 544 c 1,28,29
 793 544 793 544 856.5 482 c 128,-1,30
 920 420 920 420 920 352 c 0,31,32
 920 317 920 317 905 285 c 0,33,34
 899 271 899 271 858 231 c 0,35,36
 821 195 821 195 821 182 c 1,37,-1
 835 151 l 1,38,39
 862 111 862 111 940 16 c 0,40,41
 1053 -122 1053 -122 1053 -189 c 0,42,43
 1053 -227 1053 -227 1024 -264 c 0,44,45
 1007 -280 1007 -280 982 -280 c 0,46,47
 939 -280 939 -280 872 -239 c 0,48,49
 800 -195 800 -195 800 -156 c 0,50,51
 800 -126 800 -126 828.5 -101 c 128,-1,52
 857 -76 857 -76 860 -60 c 0,53,54
 860 -16 860 -16 762 120 c 1,55,-1
 744 139 l 2,56,57
 729 151 729 151 704 155 c 1,58,-1
 679 151 l 1,59,-1
 619 146 l 2,60,61
 607 145 607 145 593 145 c 0,62,63
 453 145 453 145 290 274 c 0,64,65
 117 411 117 411 95 609 c 1,66,67
 95 763 95 763 203 844 c 0,68,69
 300 918 300 918 459 916 c 2,70,-1
 562 915 l 2,71,72
 638 914 638 914 654 921 c 0,73,74
 683 933 683 933 699 993 c 1,75,-1
 699 1169 l 1,76,-1
 42 1169 l 1,77,-1
 42 1325 l 1,78,-1
 1038 1325 l 1,79,-1
 1038 1169 l 1,0,-1
1540 1169 m 1,80,-1
 1384 1169 l 1,81,-1
 1383 44 l 2,82,83
 1383 1 1383 1 1372 -3 c 1,84,85
 1357 -3 1357 -3 1283 66 c 2,86,-1
 1228 117 l 2,87,88
 1206 137 1206 137 1202 170 c 1,89,-1
 1202 1169 l 1,90,-1
 1042 1169 l 1,91,-1
 1042 1325 l 1,92,-1
 1540 1325 l 1,93,-1
 1540 1169 l 1,80,-1
EndSplineSet
Fore
SplineSet
331 1157 m 1,0,-1
 348 1189 l 1,1,2
 538 1126 538 1126 654.5 959.5 c 128,-1,3
 771 793 771 793 771 587 c 0,4,5
 771 344 771 344 623 170 c 128,-1,6
 475 -4 475 -4 273 -4 c 0,7,8
 159 -4 159 -4 90 70 c 128,-1,9
 21 144 21 144 21 259 c 0,10,11
 21 450 21 450 175 606 c 128,-1,12
 329 762 329 762 481 762 c 0,13,14
 567 762 567 762 632 700 c 1,15,16
 616 1052 616 1052 331 1157 c 1,0,-1
480 719 m 0,17,18
 360 719 360 719 257.5 546.5 c 128,-1,19
 155 374 155 374 155 206 c 0,20,21
 155 124 155 124 195 80 c 128,-1,22
 235 36 235 36 302 36 c 0,23,24
 410 36 410 36 512.5 207 c 128,-1,25
 615 378 615 378 615 552 c 0,26,27
 615 719 615 719 480 719 c 0,17,18
1564 742 m 1,28,-1
 1403 183 l 1,29,-1
 1385 108 l 2,30,31
 1382 97 1382 97 1382 90 c 0,32,33
 1382 77 1382 77 1391 67 c 0,34,35
 1397 59 1397 59 1407 59 c 0,36,37
 1418 59 1418 59 1435 73 c 0,38,39
 1467 96 1467 96 1521 172 c 1,40,-1
 1549 152 l 1,41,42
 1492 66 1492 66 1432 21 c 128,-1,43
 1372 -24 1372 -24 1320 -24 c 0,44,45
 1285 -24 1285 -24 1267 -6.5 c 128,-1,46
 1249 11 1249 11 1249 45 c 0,47,48
 1249 86 1249 86 1268 152 c 2,49,-1
 1285 214 l 1,50,51
 1177 73 1177 73 1086 16 c 0,52,53
 1021 -24 1021 -24 958 -24 c 0,54,55
 898 -24 898 -24 854.5 26 c 128,-1,56
 811 76 811 76 811 163 c 0,57,58
 811 294 811 294 889.5 440 c 128,-1,59
 968 586 968 586 1089 673 c 0,60,61
 1184 742 1184 742 1268 742 c 0,62,63
 1319 742 1319 742 1352.5 716 c 128,-1,64
 1386 690 1386 690 1403 629 c 1,65,-1
 1433 723 l 1,66,-1
 1564 742 l 1,28,-1
1270 700 m 0,67,68
 1217 700 1217 700 1158 650 c 0,69,70
 1074 580 1074 580 1008.5 442 c 128,-1,71
 943 304 943 304 943 193 c 0,72,73
 943 137 943 137 971 104.5 c 128,-1,74
 999 72 999 72 1035 72 c 0,75,76
 1125 72 1125 72 1230 205 c 0,77,78
 1372 381 1372 381 1372 567 c 0,79,80
 1372 637 1372 637 1344.5 668.5 c 128,-1,81
 1317 700 1317 700 1270 700 c 0,67,68
EndSplineSet
Validated: 1
EndChar

StartChar: backslash
Encoding: 92 92 63
Width: 3164
Flags: W
LayerCount: 2
Back
SplineSet
2740 1170 m 1,0,-1
 2472 1170 l 1,1,2
 2472 1140 2472 1140 2474 1109 c 0,3,4
 2476 1087 2476 1087 2480 1029 c 2,5,-1
 2489 890 l 2,6,7
 2491 859 2491 859 2491 840 c 0,8,9
 2491 647 2491 647 2395 508 c 0,10,11
 2356 451 2356 451 2356 403 c 0,12,13
 2356 364 2356 364 2381 337 c 0,14,15
 2456 254 2456 254 2528 205 c 2,16,-1
 2687 96 l 2,17,18
 2740 60 2740 60 2740 0 c 0,19,20
 2740 -49 2740 -49 2699 -49 c 0,21,22
 2673 -49 2673 -49 2643 -24 c 2,23,-1
 2466 123 l 1,24,-1
 2293 275 l 2,25,26
 2222 337 2222 337 2131 449 c 0,27,28
 2120 462 2120 462 2085 511 c 0,29,30
 2048 557 2048 557 1986 657 c 0,31,32
 1978 674 1978 674 1973 690 c 2,33,-1
 1964 748 l 1,34,35
 1964 860 1964 860 2050 860 c 0,36,37
 2078 860 2078 860 2135 834.5 c 128,-1,38
 2192 809 2192 809 2221 809 c 0,39,40
 2245 809 2245 809 2260 817 c 1,41,42
 2303 880 2303 880 2303 995 c 0,43,44
 2303 1062 2303 1062 2293 1116 c 0,45,46
 2291 1145 2291 1145 2283 1170 c 1,47,-1
 1905 1170 l 1,48,-1
 1905 1326 l 1,49,-1
 2740 1326 l 1,50,-1
 2740 1170 l 1,0,-1
1896 1170 m 1,51,-1
 1720 1170 l 1,52,53
 1707 1137 1707 1137 1707 1110 c 0,54,55
 1707 1084 1707 1084 1725 988 c 0,56,57
 1736 930 1736 930 1736 900 c 2,58,-1
 1736 870 l 1,59,60
 1731 840 1731 840 1709 774 c 1,61,62
 1691 767 1691 767 1654 768 c 2,63,-1
 1493 772 l 2,64,65
 1260 778 1260 778 1173 675 c 0,66,67
 1109 599 1109 599 1109 510 c 0,68,69
 1109 416 1109 416 1171.5 348.5 c 128,-1,70
 1234 281 1234 281 1328 281 c 1,71,-1
 1379 286 l 2,72,73
 1408 292 1408 292 1434 307 c 0,74,75
 1447 317 1447 317 1446 346 c 2,76,-1
 1444 401 l 2,77,78
 1440 522 1440 522 1583 545 c 1,79,80
 1651 545 1651 545 1714.5 483 c 128,-1,81
 1778 421 1778 421 1778 353 c 0,82,83
 1778 318 1778 318 1763 286 c 0,84,85
 1757 272 1757 272 1716 232 c 0,86,87
 1679 196 1679 196 1679 183 c 1,88,-1
 1693 152 l 1,89,90
 1720 112 1720 112 1798 17 c 0,91,92
 1911 -121 1911 -121 1911 -188 c 0,93,94
 1911 -226 1911 -226 1882 -263 c 0,95,96
 1865 -279 1865 -279 1840 -279 c 0,97,98
 1797 -279 1797 -279 1730 -238 c 0,99,100
 1658 -194 1658 -194 1658 -155 c 0,101,102
 1658 -125 1658 -125 1686.5 -100 c 128,-1,103
 1715 -75 1715 -75 1718 -59 c 0,104,105
 1718 -15 1718 -15 1620 121 c 1,106,-1
 1602 140 l 2,107,108
 1587 152 1587 152 1562 156 c 1,109,-1
 1537 152 l 1,110,-1
 1477 147 l 2,111,112
 1465 146 1465 146 1451 146 c 0,113,114
 1311 146 1311 146 1148 275 c 0,115,116
 975 412 975 412 953 610 c 1,117,118
 953 764 953 764 1061 845 c 0,119,120
 1158 919 1158 919 1317 917 c 2,121,-1
 1420 916 l 2,122,123
 1496 915 1496 915 1512 922 c 0,124,125
 1541 934 1541 934 1557 994 c 1,126,-1
 1557 1170 l 1,127,-1
 900 1170 l 1,128,-1
 900 1326 l 1,129,-1
 1896 1326 l 1,130,-1
 1896 1170 l 1,51,-1
1508 1506 m 2,131,132
 1573 1438 1573 1438 1573 1396 c 0,133,134
 1573 1368 1573 1368 1548 1367 c 0,135,136
 1529 1366 1529 1366 1414 1488 c 0,137,138
 1287 1622 1287 1622 1261 1641 c 0,139,140
 1120 1740 1120 1740 975 1740 c 0,141,142
 860 1740 860 1740 790.5 1664.5 c 128,-1,143
 721 1589 721 1589 721 1472 c 0,144,145
 721 1371 721 1371 686 1371 c 0,146,147
 646 1371 646 1371 575 1493 c 0,148,149
 544 1546 544 1546 544 1607 c 0,150,151
 544 1727 544 1727 639.5 1817 c 128,-1,152
 735 1907 735 1907 856 1907 c 0,153,154
 868 1907 868 1907 881 1906 c 2,155,-1
 931 1902 l 2,156,157
 1144 1885 1144 1885 1292 1731 c 2,158,-1
 1508 1506 l 2,131,132
892 1169 m 1,159,-1
 742 1169 l 1,160,-1
 742 41 l 2,161,162
 742 5 742 5 715 1 c 0,163,164
 697 0 697 0 629 68 c 1,165,166
 575 116 575 116 574 155 c 2,167,-1
 575 1169 l 1,168,-1
 424 1169 l 1,169,-1
 424 1325 l 1,170,-1
 892 1325 l 1,171,-1
 892 1169 l 1,159,-1
2722 -1200 m 1,172,-1
 2769 -1200 l 1,173,174
 2672 -1350 2672 -1350 2542 -1451 c 0,175,176
 2357 -1594 2357 -1594 2105.5 -1672 c 128,-1,177
 1854 -1750 1854 -1750 1584 -1750 c 0,178,179
 1189 -1750 1189 -1750 863 -1597.5 c 128,-1,180
 537 -1445 537 -1445 396 -1200 c 1,181,-1
 450 -1200 l 1,182,183
 537 -1322 537 -1322 687.5 -1400.5 c 128,-1,184
 838 -1479 838 -1479 1069 -1518 c 128,-1,185
 1300 -1557 1300 -1557 1551 -1557 c 0,186,187
 1824 -1557 1824 -1557 2047 -1524 c 0,188,189
 2223 -1498 2223 -1498 2329.5 -1461.5 c 128,-1,190
 2436 -1425 2436 -1425 2534 -1362.5 c 128,-1,191
 2632 -1300 2632 -1300 2722 -1200 c 1,172,-1
EndSplineSet
Fore
SplineSet
2722 -1200 m 1,0,-1
 2769 -1200 l 1,1,2
 2672 -1350 2672 -1350 2542 -1451 c 0,3,4
 2357 -1594 2357 -1594 2105.5 -1672 c 128,-1,5
 1854 -1750 1854 -1750 1584 -1750 c 0,6,7
 1189 -1750 1189 -1750 863 -1597.5 c 128,-1,8
 537 -1445 537 -1445 396 -1200 c 1,9,-1
 450 -1200 l 1,10,11
 537 -1322 537 -1322 687.5 -1400.5 c 128,-1,12
 838 -1479 838 -1479 1069 -1518 c 128,-1,13
 1300 -1557 1300 -1557 1551 -1557 c 0,14,15
 1824 -1557 1824 -1557 2047 -1524 c 0,16,17
 2223 -1498 2223 -1498 2329.5 -1461.5 c 128,-1,18
 2436 -1425 2436 -1425 2534 -1362.5 c 128,-1,19
 2632 -1300 2632 -1300 2722 -1200 c 1,0,-1
1842 701 m 1,20,-1
 2127 747 l 1,21,-1
 2008 346 l 1,22,23
 2153 593 2153 593 2271 691 c 0,24,25
 2337 747 2337 747 2380 747 c 0,26,27
 2407 747 2407 747 2422.5 731 c 128,-1,28
 2438 715 2438 715 2438 684 c 0,29,30
 2438 630 2438 630 2410 580 c 0,31,32
 2390 543 2390 543 2353 543 c 0,33,34
 2334 543 2334 543 2320.5 555.5 c 128,-1,35
 2307 568 2307 568 2304 594 c 0,36,37
 2302 609 2302 609 2296 614 c 0,38,39
 2290 621 2290 621 2281 621 c 0,40,41
 2267 621 2267 621 2254 614 c 0,42,43
 2233 603 2233 603 2189 550 c 0,44,45
 2120 469 2120 469 2040 340 c 0,46,47
 2006 286 2006 286 1981 217 c 0,48,49
 1946 123 1946 123 1941 104 c 2,50,-1
 1915 0 l 1,51,-1
 1789 0 l 1,52,-1
 1941 513 l 2,53,54
 1968 602 1968 602 1968 640 c 0,55,56
 1968 655 1968 655 1955 665 c 0,57,58
 1939 678 1939 678 1912 678 c 0,59,60
 1894 678 1894 678 1848 670 c 1,61,-1
 1842 701 l 1,20,-1
928 1161 m 1,62,-1
 945 1193 l 1,63,64
 1135 1130 1135 1130 1251.5 963.5 c 128,-1,65
 1368 797 1368 797 1368 590 c 0,66,67
 1368 348 1368 348 1220 174 c 128,-1,68
 1072 0 1072 0 870 0 c 0,69,70
 756 0 756 0 687 74 c 128,-1,71
 618 148 618 148 618 263 c 0,72,73
 618 454 618 454 772 610 c 128,-1,74
 926 766 926 766 1078 766 c 0,75,76
 1164 766 1164 766 1229 703 c 1,77,78
 1213 1056 1213 1056 928 1161 c 1,62,-1
1077 722 m 0,79,80
 957 722 957 722 854.5 550 c 128,-1,81
 752 378 752 378 752 210 c 0,82,83
 752 128 752 128 792 84 c 128,-1,84
 832 40 832 40 898 40 c 0,85,86
 1006 40 1006 40 1109 211 c 128,-1,87
 1212 382 1212 382 1212 556 c 0,88,89
 1212 722 1212 722 1077 722 c 0,79,80
1695 1071 m 0,90,91
 1730 1071 1730 1071 1754 1047 c 128,-1,92
 1778 1023 1778 1023 1778 988 c 0,93,94
 1778 955 1778 955 1753.5 930.5 c 128,-1,95
 1729 906 1729 906 1695 906 c 256,96,97
 1661 906 1661 906 1637 930.5 c 128,-1,98
 1613 955 1613 955 1613 988 c 0,99,100
 1613 1023 1613 1023 1637 1047 c 128,-1,101
 1661 1071 1661 1071 1695 1071 c 0,90,91
1706 743 m 1,102,-1
 1543 165 l 2,103,104
 1526 107 1526 107 1526 95 c 0,105,106
 1526 82 1526 82 1534 73.5 c 128,-1,107
 1542 65 1542 65 1553 65 c 0,108,109
 1565 65 1565 65 1582 78 c 0,110,111
 1629 116 1629 116 1677 184 c 1,112,-1
 1706 165 l 1,113,114
 1650 79 1650 79 1574 21 c 0,115,116
 1518 -23 1518 -23 1467 -23 c 0,117,118
 1433 -23 1433 -23 1411.5 -3 c 128,-1,119
 1390 17 1390 17 1390 48 c 0,120,121
 1390 78 1390 78 1411 149 c 2,122,-1
 1518 519 l 2,123,124
 1544 610 1544 610 1544 633 c 0,125,126
 1544 651 1544 651 1531.5 662.5 c 128,-1,127
 1519 674 1519 674 1496 674 c 0,128,129
 1478 674 1478 674 1421 665 c 1,130,-1
 1421 697 l 1,131,-1
 1706 743 l 1,102,-1
EndSplineSet
Validated: 1
EndChar

StartChar: bracketright
Encoding: 93 93 64
Width: 1582
Flags: W
LayerCount: 2
Back
SplineSet
957 1169 m 1,0,-1
 689 1169 l 1,1,2
 689 1139 689 1139 691 1108 c 0,3,4
 693 1086 693 1086 697 1028 c 2,5,-1
 706 889 l 2,6,7
 708 858 708 858 708 839 c 0,8,9
 708 646 708 646 612 507 c 0,10,11
 573 450 573 450 573 402 c 0,12,13
 573 363 573 363 598 336 c 0,14,15
 673 253 673 253 745 204 c 2,16,-1
 904 95 l 2,17,18
 957 59 957 59 957 -1 c 0,19,20
 957 -50 957 -50 916 -50 c 0,21,22
 890 -50 890 -50 860 -25 c 2,23,-1
 683 122 l 1,24,-1
 510 274 l 2,25,26
 439 336 439 336 348 448 c 0,27,28
 337 461 337 461 302 510 c 0,29,30
 265 556 265 556 203 656 c 0,31,32
 195 673 195 673 190 689 c 2,33,-1
 181 747 l 1,34,35
 181 859 181 859 267 859 c 0,36,37
 295 859 295 859 352 833.5 c 128,-1,38
 409 808 409 808 438 808 c 0,39,40
 462 808 462 808 477 816 c 1,41,42
 520 879 520 879 520 994 c 0,43,44
 520 1061 520 1061 510 1115 c 0,45,46
 508 1144 508 1144 500 1169 c 1,47,-1
 122 1169 l 1,48,-1
 122 1325 l 1,49,-1
 957 1325 l 1,50,-1
 957 1169 l 1,0,-1
1460 1169 m 1,51,-1
 1304 1169 l 1,52,-1
 1303 44 l 2,53,54
 1303 1 1303 1 1292 -3 c 1,55,56
 1277 -3 1277 -3 1203 66 c 2,57,-1
 1148 117 l 2,58,59
 1126 137 1126 137 1122 170 c 1,60,-1
 1122 1169 l 1,61,-1
 962 1169 l 1,62,-1
 962 1325 l 1,63,-1
 1460 1325 l 1,64,-1
 1460 1169 l 1,51,-1
EndSplineSet
Fore
SplineSet
1448 742 m 1,0,-1
 1288 183 l 1,1,-1
 1269 108 l 2,2,3
 1267 97 1267 97 1267 90 c 0,4,5
 1267 77 1267 77 1275 67 c 0,6,7
 1282 59 1282 59 1292 59 c 256,8,9
 1302 59 1302 59 1320 73 c 0,10,11
 1352 96 1352 96 1405 172 c 1,12,-1
 1434 152 l 1,13,14
 1377 66 1377 66 1316.5 21 c 128,-1,15
 1256 -24 1256 -24 1205 -24 c 0,16,17
 1170 -24 1170 -24 1152 -6.5 c 128,-1,18
 1134 11 1134 11 1134 45 c 0,19,20
 1134 86 1134 86 1152 152 c 2,21,-1
 1170 214 l 1,22,23
 1061 73 1061 73 971 16 c 0,24,25
 906 -24 906 -24 843 -24 c 0,26,27
 783 -24 783 -24 739 26 c 128,-1,28
 695 76 695 76 695 163 c 0,29,30
 695 294 695 294 774 440 c 128,-1,31
 853 586 853 586 974 673 c 0,32,33
 1069 742 1069 742 1153 742 c 0,34,35
 1203 742 1203 742 1236.5 716 c 128,-1,36
 1270 690 1270 690 1288 629 c 1,37,-1
 1317 723 l 1,38,-1
 1448 742 l 1,0,-1
1155 700 m 0,39,40
 1102 700 1102 700 1042 650 c 0,41,42
 958 580 958 580 892.5 442 c 128,-1,43
 827 304 827 304 827 193 c 0,44,45
 827 137 827 137 855 104.5 c 128,-1,46
 883 72 883 72 920 72 c 0,47,48
 1009 72 1009 72 1115 205 c 0,49,50
 1256 381 1256 381 1256 567 c 0,51,52
 1256 637 1256 637 1229 668.5 c 128,-1,53
 1202 700 1202 700 1155 700 c 0,39,40
190 700 m 1,54,-1
 474 747 l 1,55,-1
 355 346 l 1,56,57
 500 592 500 592 618 691 c 0,58,59
 685 747 685 747 727 747 c 0,60,61
 754 747 754 747 769.5 730.5 c 128,-1,62
 785 714 785 714 785 684 c 0,63,64
 785 629 785 629 757 580 c 0,65,66
 737 543 737 543 700 543 c 0,67,68
 681 543 681 543 667.5 555.5 c 128,-1,69
 654 568 654 568 651 593 c 0,70,71
 649 609 649 609 643 614 c 0,72,73
 637 620 637 620 628 620 c 0,74,75
 614 620 614 620 601 614 c 0,76,77
 580 602 580 602 536 549 c 0,78,79
 468 469 468 469 388 340 c 0,80,81
 353 285 353 285 328 217 c 0,82,83
 294 123 294 123 289 104 c 2,84,-1
 262 0 l 1,85,-1
 136 0 l 1,86,-1
 289 512 l 2,87,88
 315 601 315 601 315 639 c 0,89,90
 315 654 315 654 303 664 c 0,91,92
 286 677 286 677 259 677 c 0,93,94
 242 677 242 677 195 670 c 1,95,-1
 190 700 l 1,54,-1
EndSplineSet
Validated: 1
EndChar

StartChar: asciicircum
Encoding: 94 94 65
Width: 7
Flags: W
LayerCount: 2
Fore
SplineSet
8925 -1200 m 1,0,-1
 9097 -1200 l 1,1,2
 8741 -1391 8741 -1391 8265 -1519 c 0,3,4
 7586 -1702 7586 -1702 6664 -1801 c 128,-1,5
 5742 -1900 5742 -1900 4752 -1900 c 0,6,7
 3304 -1900 3304 -1900 2108.5 -1705.5 c 128,-1,8
 913 -1511 913 -1511 396 -1200 c 1,9,-1
 594 -1200 l 1,10,11
 913 -1355 913 -1355 1465 -1455.5 c 128,-1,12
 2017 -1556 2017 -1556 2864 -1605.5 c 128,-1,13
 3711 -1655 3711 -1655 4631 -1655 c 0,14,15
 5632 -1655 5632 -1655 6450 -1613 c 0,16,17
 7095 -1580 7095 -1580 7485.5 -1533 c 128,-1,18
 7876 -1486 7876 -1486 8235.5 -1407 c 128,-1,19
 8595 -1328 8595 -1328 8925 -1200 c 1,0,-1
EndSplineSet
Validated: 1
EndChar

StartChar: underscore
Encoding: 95 95 66
Width: 1582
Flags: W
LayerCount: 2
Fore
SplineSet
-72 440 m 1,0,-1
 -103 451 l 1,1,-1
 63 588 l 1,2,-1
 1688 588 l 1,3,-1
 1718 578 l 1,4,-1
 1534 440 l 1,5,-1
 -72 440 l 1,0,-1
EndSplineSet
Validated: 1
EndChar

StartChar: grave
Encoding: 96 96 67
Width: 0
Flags: W
LayerCount: 2
Fore
SplineSet
5823 -2000 m 1,0,-1
 5933 -2000 l 1,1,2
 5707 -2242 5707 -2242 5403 -2407 c 0,3,4
 4972 -2640 4972 -2640 4385 -2766.5 c 128,-1,5
 3798 -2893 3798 -2893 3168 -2893 c 0,6,7
 2246 -2893 2246 -2893 1485.5 -2645 c 128,-1,8
 725 -2397 725 -2397 396 -2000 c 1,9,-1
 522 -2000 l 1,10,11
 725 -2198 725 -2198 1076 -2326 c 128,-1,12
 1427 -2454 1427 -2454 1966 -2517 c 128,-1,13
 2505 -2580 2505 -2580 3091 -2580 c 0,14,15
 3728 -2580 3728 -2580 4248 -2527 c 0,16,17
 4659 -2484 4659 -2484 4907.5 -2424 c 128,-1,18
 5156 -2364 5156 -2364 5384.5 -2263 c 128,-1,19
 5613 -2162 5613 -2162 5823 -2000 c 1,0,-1
EndSplineSet
Validated: 1
EndChar

StartChar: d
Encoding: 100 100 71
Width: 1582
Flags: W
LayerCount: 2
Back
SplineSet
1381 1169 m 1,0,-1
 1265 1169 l 1,1,-1
 1265 68 l 2,2,3
 1265 -3 1265 -3 1252 -3 c 0,4,5
 1238 -3 1238 -3 1152 79 c 0,6,7
 1094 134 1094 134 1081 169 c 1,8,9
 1072 206 1072 206 1072 358 c 1,10,-1
 965 304 l 2,11,12
 884 263 884 263 795 263 c 0,13,14
 696 263 696 263 632 293 c 0,15,16
 575 319 575 319 499 394 c 0,17,18
 383 507 383 507 383 639 c 0,19,20
 383 696 383 696 414 731 c 2,21,-1
 476 801 l 1,22,23
 460 829 460 829 422 858 c 1,24,-1
 376 885 l 2,25,26
 354 898 354 898 345 906 c 0,27,28
 310 929 310 929 292 981 c 1,29,30
 280 1046 280 1046 280 1101 c 2,31,-1
 280 1123 l 2,32,33
 280 1169 280 1169 201 1169 c 1,34,-1
 201 1325 l 1,35,-1
 433 1325 l 1,36,-1
 528 1169 l 1,37,-1
 483 1169 l 1,38,-1
 454 1078 l 2,39,40
 445 1049 445 1049 445 1007 c 0,41,42
 445 911 445 911 538 838 c 1,43,44
 624 871 624 871 690 871 c 0,45,46
 758 871 758 871 808 811 c 2,47,-1
 837 776 l 2,48,49
 858 751 858 751 858 737 c 0,50,51
 858 711 858 711 792 711 c 0,52,53
 686 711 686 711 616 669 c 0,54,55
 532 618 532 618 532 519 c 0,56,57
 532 400 532 400 658 406 c 2,58,-1
 701 408 l 2,59,60
 818 413 818 413 940 486 c 0,61,62
 1045 549 1045 549 1092 622 c 1,63,-1
 1092 1169 l 1,64,-1
 744 1169 l 1,65,-1
 642 1325 l 1,66,-1
 1381 1325 l 1,67,-1
 1381 1169 l 1,0,-1
EndSplineSet
Fore
SplineSet
1091.34960938 1616.59960938 m 1,0,-1
 1244.79980469 1473.04980469 l 1,1,-1
 1398.25 1458.20019531 l 1,2,-1
 1423 1418.59960938 l 1,3,-1
 1467.54980469 1324.54980469 l 1,4,-1
 1244.79980469 1324.54980469 l 1,5,-1
 1244.79980469 -244.599609375 l 1,6,-1
 1225 -234.700195312 l 2,7,8
 1190.34960938 -214.900390625 1190.34960938 -214.900390625 1175.5 -190.150390625 c 2,9,-1
 1170.54980469 -170.349609375 l 1,10,-1
 1165.59960938 -150.549804688 l 1,11,-1
 1160.65039062 -130.75 l 1,12,-1
 1130.95019531 -31.75 l 2,13,14
 1096.29980469 72.2001953125 1096.29980469 72.2001953125 987.400390625 186.049804688 c 0,15,16
 819.099609375 359.299804688 819.099609375 359.299804688 581.5 473.150390625 c 1,17,-1
 413.200195312 532.549804688 l 1,18,-1
 378.549804688 542.450195312 l 1,19,-1
 373.599609375 542.450195312 l 1,20,-1
 368.650390625 542.450195312 l 1,21,-1
 363.700195312 547.400390625 l 1,22,-1
 314.200195312 562.25 l 1,23,-1
 284.5 601.849609375 l 1,24,-1
 264.700195312 626.599609375 l 1,25,-1
 239.950195312 666.200195312 l 1,26,-1
 190.450195312 750.349609375 l 1,27,-1
 393.400390625 884 l 1,28,-1
 512.200195312 948.349609375 l 1,29,-1
 512.200195312 953.299804688 l 1,30,31
 353.799804688 958.25 353.799804688 958.25 319.150390625 1131.5 c 1,32,-1
 319.150390625 1136.45019531 l 1,33,-1
 314.200195312 1200.79980469 l 1,34,-1
 314.200195312 1210.70019531 l 1,35,-1
 314.200195312 1225.54980469 l 1,36,37
 338.950195312 1418.59960938 338.950195312 1418.59960938 502.299804688 1487.90039062 c 1,38,-1
 566.650390625 1502.75 l 1,39,-1
 606.25 1502.75 l 2,40,41
 685.450195312 1492.84960938 685.450195312 1492.84960938 725.049804688 1463.15039062 c 0,42,43
 804.25 1408.70019531 804.25 1408.70019531 794.349609375 1319.59960938 c 0,44,45
 794.349609375 1275.04980469 794.349609375 1275.04980469 764.650390625 1235.45019531 c 0,46,47
 725.049804688 1185.95019531 725.049804688 1185.95019531 650.799804688 1185.95019531 c 0,48,49
 591.400390625 1185.95019531 591.400390625 1185.95019531 546.849609375 1230.5 c 0,50,51
 512.200195312 1265.15039062 512.200195312 1265.15039062 512.200195312 1339.40039062 c 1,52,-1
 457.75 1289.90039062 l 1,53,54
 383.5 1181 383.5 1181 512.200195312 1096.84960938 c 2,55,-1
 561.700195312 1067.15039062 l 2,56,57
 631 1037.45019531 631 1037.45019531 675.549804688 1042.40039062 c 2,58,-1
 734.950195312 1062.20019531 l 1,59,-1
 779.5 1082 l 1,60,-1
 868.599609375 1116.65039062 l 1,61,-1
 952.75 1151.29980469 l 1,62,-1
 997.299804688 1171.09960938 l 1,63,-1
 1046.79980469 1185.95019531 l 1,64,-1
 1086.40039062 1210.70019531 l 1,65,-1
 1096.29980469 1275.04980469 l 1,66,-1
 1091.34960938 1299.79980469 l 1,67,-1
 1091.34960938 1334.45019531 l 1,68,-1
 1091.34960938 1616.59960938 l 1,0,-1
462.700195312 695.900390625 m 1,69,70
 541.900390625 681.049804688 541.900390625 681.049804688 655.75 601.849609375 c 0,71,72
 764.650390625 537.5 764.650390625 537.5 873.549804688 433.549804688 c 256,73,74
 982.450195312 329.599609375 982.450195312 329.599609375 1091.34960938 186.049804688 c 1,75,-1
 1091.34960938 1007.75 l 1,76,77
 848.799804688 923.599609375 848.799804688 923.599609375 640.900390625 804.799804688 c 2,78,-1
 581.5 775.099609375 l 1,79,-1
 512.200195312 735.5 l 1,80,-1
 462.700195312 695.900390625 l 1,69,70
EndSplineSet
EndChar

StartChar: e
Encoding: 101 101 72
Width: 0
Flags: W
LayerCount: 2
Fore
SplineSet
28 3643 m 0,0,1
 651 3643 651 3643 1108 3094 c 1,2,3
 1306 2811 1306 2811 1306 2509 c 1,4,-1
 1297 2500 l 1,5,-1
 1153 2500 l 2,6,7
 1137 2500 1137 2500 1108 2761 c 1,8,9
 1003 3063 1003 3063 775 3175 c 1,10,11
 486 3310 486 3310 10 3310 c 1,12,-1
 1 3319 l 1,13,-1
 1 3625 l 2,14,15
 1 3643 1 3643 28 3643 c 0,0,1
EndSplineSet
Validated: 1
EndChar

StartChar: g
Encoding: 103 103 74
Width: 1582
VWidth: 575
Flags: W
LayerCount: 2
Back
SplineSet
1398 1169 m 1,0,-1
 1292 1169 l 1,1,-1
 1292 59 l 2,2,3
 1292 -1 1292 -1 1263 -2 c 0,4,5
 1236 0 1236 0 1116 155 c 1,6,7
 1097 193 1097 193 1097 247 c 2,8,-1
 1097 1169 l 1,9,-1
 626 1169 l 1,10,-1
 687 891 l 2,11,12
 716 760 716 760 716 660 c 0,13,14
 716 525 716 525 651 445 c 0,15,16
 605 389 605 389 534 389 c 1,17,18
 433 400 433 400 341 528 c 0,19,20
 258 643 258 643 247 750 c 1,21,22
 247 830 247 830 301 830 c 0,23,24
 337 830 337 830 386 797 c 0,25,26
 420 774 420 774 443 774 c 0,27,28
 519 773 519 773 519 979 c 0,29,30
 519 1040 519 1040 510 1097 c 2,31,-1
 499 1169 l 1,32,-1
 187 1169 l 1,33,-1
 187 1325 l 1,34,-1
 1398 1325 l 1,35,-1
 1398 1169 l 1,0,-1
EndSplineSet
Fore
SplineSet
1097.5703125 1616.25585938 m 5,0,-1
 1250.79882812 1472.91308594 l 5,1,-1
 1404.02734375 1458.08496094 l 5,2,-1
 1428.7421875 1418.54199219 l 5,3,-1
 1473.2265625 1324.62695312 l 5,4,-1
 1250.79882812 1324.62695312 l 5,5,-1
 1250.79882812 -242.255859375 l 5,6,-1
 1201.37109375 -207.65625 l 5,7,-1
 1151.94238281 -173.055664062 l 5,8,-1
 1137.11425781 -158.227539062 l 5,9,-1
 1132.17089844 -158.227539062 l 5,10,-1
 1127.22753906 -153.284179688 l 5,11,-1
 1102.51269531 -128.5703125 l 5,12,-1
 1097.5703125 -89.0263671875 l 5,13,-1
 1097.5703125 -64.3134765625 l 5,14,-1
 1097.5703125 -44.5419921875 l 5,15,-1
 1097.5703125 123.515625 l 5,16,-1
 1097.5703125 731.485351562 l 5,17,-1
 1097.5703125 899.54296875 l 5,18,-1
 1097.5703125 924.256835938 l 5,19,-1
 1097.5703125 929.200195312 l 5,20,-1
 1097.5703125 934.142578125 l 5,21,-1
 1092.62890625 988.514648438 l 6,22,23
 1087.68652344 1023.11425781 1087.68652344 1023.11425781 1033.31347656 1067.59960938 c 6,24,-1
 1008.59863281 1092.31347656 l 5,25,-1
 934.45703125 1161.51367188 l 5,26,-1
 885.02734375 1206 l 5,27,28
 667.543945312 1374.05664062 667.543945312 1374.05664062 529.143554688 1339.45507812 c 6,29,-1
 484.65625 1324.62695312 l 5,30,-1
 425.34375 1290.02734375 l 5,31,-1
 400.629882812 1265.3125 l 5,32,-1
 366.029296875 1215.88476562 l 5,33,-1
 336.372070312 1136.79882812 l 5,34,-1
 331.4296875 1097.25683594 l 5,35,36
 435.228515625 1126.9140625 435.228515625 1126.9140625 543.971679688 1126.9140625 c 6,37,-1
 662.599609375 1107.14257812 l 5,38,-1
 741.686523438 1062.65625 l 5,39,-1
 791.114257812 1008.28515625 l 6,40,41
 845.485351562 924.256835938 845.485351562 924.256835938 830.657226562 825.400390625 c 4,42,43
 815.829101562 716.657226562 815.829101562 716.657226562 736.7421875 588.143554688 c 4,44,45
 697.200195312 514.000976562 697.200195312 514.000976562 628.000976562 439.857421875 c 6,46,-1
 613.171875 425.028320312 l 5,47,-1
 608.227539062 420.0859375 l 5,48,-1
 588.45703125 405.2578125 l 5,49,-1
 568.686523438 400.314453125 l 6,50,51
 553.857421875 390.4296875 553.857421875 390.4296875 529.143554688 415.143554688 c 6,52,-1
 519.2578125 420.0859375 l 5,53,-1
 430.286132812 479.401367188 l 5,54,-1
 430.286132812 484.34375 l 5,55,56
 593.400390625 647.456054688 593.400390625 647.456054688 657.657226562 805.629882812 c 6,57,-1
 667.543945312 830.342773438 l 5,58,-1
 682.37109375 879.772460938 l 6,59,60
 692.2578125 929.200195312 692.2578125 929.200195312 677.428710938 953.9140625 c 4,61,62
 642.830078125 1028.05664062 642.830078125 1028.05664062 534.0859375 1008.28515625 c 6,63,-1
 455.000976562 978.62890625 l 5,64,-1
 450.057617188 978.62890625 l 5,65,-1
 445.115234375 973.686523438 l 5,66,-1
 420.400390625 963.799804688 l 5,67,-1
 370.971679688 934.142578125 l 5,68,-1
 341.314453125 919.314453125 l 5,69,-1
 306.71484375 904.486328125 l 5,70,-1
 282 894.599609375 l 5,71,-1
 242.45703125 884.713867188 l 5,72,-1
 193.029296875 889.65625 l 5,73,-1
 173.2578125 919.314453125 l 5,74,-1
 163.373046875 934.142578125 l 5,75,-1
 133.715820312 1042.88476562 l 5,76,-1
 128.772460938 1117.02832031 l 5,77,78
 148.544921875 1324.62695312 148.544921875 1324.62695312 390.743164062 1423.48535156 c 4,79,80
 450.057617188 1448.19824219 450.057617188 1448.19824219 632.942382812 1463.02636719 c 6,81,-1
 514.314453125 1458.08496094 l 5,82,-1
 632.942382812 1463.02636719 l 6,83,84
 702.143554688 1453.14257812 702.143554688 1453.14257812 786.170898438 1408.65625 c 4,85,86
 919.62890625 1344.40039062 919.62890625 1344.40039062 1097.5703125 1156.5703125 c 5,87,-1
 1097.5703125 1616.25585938 l 5,0,-1
EndSplineSet
EndChar

StartChar: l
Encoding: 108 108 79
Width: 0
Flags: W
LayerCount: 2
Fore
SplineSet
-643 -824 m 1,0,-1
 -707 -902 l 1,1,-1
 -759 -960 l 1,2,3
 -781 -972 -781 -972 -793 -972 c 0,4,5
 -809 -972 -809 -972 -877 -892 c 2,6,-1
 -940 -820 l 1,7,-1
 -940 -783 l 1,8,-1
 -865 -681 l 2,9,10
 -837 -643 -837 -643 -809 -627 c 1,11,12
 -781 -627 -781 -627 -643 -783 c 1,13,-1
 -641 -804 l 1,14,-1
 -643 -824 l 1,0,-1
EndSplineSet
Validated: 1
EndChar

StartChar: m
Encoding: 109 109 80
Width: 1596
VWidth: 575
Flags: W
LayerCount: 2
Back
SplineSet
1395 1169 m 1,0,-1
 1254 1169 l 1,1,-1
 1254 56 l 1,2,3
 1258 -6 1258 -6 1231 0 c 1,4,5
 1206 -6 1206 -6 1138.5 67 c 128,-1,6
 1071 140 1071 140 1063 176 c 1,7,-1
 1063 529 l 1,8,-1
 660 529 l 1,9,10
 625 512 625 512 628 480 c 2,11,-1
 632 432 l 1,12,-1
 632 407 l 2,13,14
 632 390 632 390 628 372 c 1,15,16
 628 347 628 347 597 330 c 0,17,18
 570 315 570 315 543 315 c 0,19,20
 489 315 489 315 432 379 c 2,21,-1
 341 482 l 1,22,23
 252 557 252 557 252 626 c 0,24,25
 252 712 252 712 339 712 c 2,26,-1
 377 712 l 1,27,-1
 406 714 l 1,28,-1
 435 724 l 1,29,-1
 435 1169 l 1,30,-1
 190 1169 l 1,31,-1
 190 1325 l 1,32,-1
 1395 1325 l 1,33,-1
 1395 1169 l 1,0,-1
1069 707 m 1,34,-1
 1069 1170 l 1,35,-1
 619 1170 l 1,36,-1
 619 707 l 1,37,-1
 1069 707 l 1,34,-1
EndSplineSet
Fore
SplineSet
134 1436.5 m 5,0,-1
 1030 1436.5 l 5,1,-1
 1234 1436.5 l 5,2,-1
 1318 1428.5 l 5,3,-1
 1342 1396.5 l 5,4,-1
 1374 1324.5 l 5,5,-1
 1194 1324.5 l 5,6,-1
 1194 56.5 l 5,7,-1
 1178 64.5 l 6,8,9
 1150 80.5 1150 80.5 1138 100.5 c 6,10,-1
 1126 136.5 l 5,11,-1
 1126 156.5 l 5,12,-1
 1122 172.5 l 5,13,-1
 1110 212.5 l 5,14,-1
 1078 292.5 l 5,15,16
 990 452.5 990 452.5 802 568.5 c 5,17,18
 770 496.5 770 496.5 722 456.5 c 4,19,20
 682 424.5 682 424.5 634 412.5 c 6,21,-1
 550 404.5 l 5,22,23
 410 424.5 410 424.5 362 556.5 c 4,24,25
 342 604.5 342 604.5 350 652.5 c 4,26,27
 354 716.5 354 716.5 390 768.5 c 4,28,29
 406 792.5 406 792.5 454 828.5 c 4,30,31
 502 860.5 502 860.5 554 864.5 c 4,32,33
 602 868.5 602 868.5 666 852.5 c 5,34,-1
 670 852.5 l 5,35,-1
 674 848.5 l 5,36,-1
 722 836.5 l 5,37,-1
 726 860.5 l 5,38,-1
 730 892.5 l 5,39,-1
 726 952.5 l 6,40,41
 710 1020.5 710 1020.5 626 1076.5 c 6,42,-1
 474 1152.5 l 5,43,-1
 398 1184.5 l 6,44,45
 338 1212.5 338 1212.5 290 1260.5 c 6,46,-1
 278 1276.5 l 5,47,-1
 278 1280.5 l 5,48,-1
 274 1288.5 l 5,49,-1
 254 1312.5 l 5,50,-1
 222 1324.5 l 5,51,-1
 222 1324.5 l 5,52,-1
 190 1332.5 l 5,53,-1
 170 1356.5 l 5,54,-1
 166 1364.5 l 5,55,-1
 150 1400.5 l 5,56,-1
 134 1436.5 l 5,0,-1
526 1320.5 m 5,57,58
 566 1296.5 566 1296.5 626 1232.5 c 5,59,-1
 630 1224.5 l 5,60,-1
 646 1208.5 l 6,61,62
 778 1060.5 778 1060.5 834 904.5 c 6,63,-1
 858 812.5 l 5,64,-1
 858 800.5 l 5,65,-1
 866 752.5 l 5,66,-1
 886 728.5 l 5,67,-1
 890 724.5 l 5,68,-1
 898 716.5 l 5,69,-1
 946 664.5 l 6,70,71
 994 616.5 994 616.5 1042 536.5 c 6,72,-1
 1070 492.5 l 5,73,-1
 1070 1324.5 l 5,74,-1
 526 1324.5 l 5,75,-1
 526 1320.5 l 5,57,58
EndSplineSet
EndChar

StartChar: n
Encoding: 110 110 81
Width: 1582
Flags: W
LayerCount: 2
Back
SplineSet
1101 1168 m 1,0,-1
 1012 1168 l 1,1,-1
 1012 75 l 2,2,3
 1013 1 1013 1 988 0 c 0,4,5
 962 0 962 0 891 73 c 1,6,-1
 840 130 l 2,7,8
 814 159 814 159 809 188 c 1,9,-1
 810 639 l 1,10,-1
 497 639 l 2,11,12
 462 639 462 639 432 614 c 0,13,14
 412 598 412 598 408 566 c 1,15,-1
 412 548 l 1,16,17
 442 455 442 455 442 401 c 0,18,19
 442 336 442 336 410 325 c 1,20,-1
 350 318 l 1,21,22
 290 318 290 318 231 364 c 1,23,-1
 166 428 l 2,24,25
 67 525 67 525 67 634 c 0,26,27
 67 816 67 816 332 808 c 1,28,-1
 831 807 l 1,29,-1
 831 1168 l 1,30,-1
 8 1168 l 1,31,-1
 8 1325 l 1,32,-1
 1101 1325 l 1,33,-1
 1101 1168 l 1,0,-1
1590 1170 m 1,34,-1
 1441 1170 l 1,35,-1
 1442 21 l 2,36,37
 1442 -6 1442 -6 1431 -6 c 0,38,39
 1422 -6 1422 -6 1402 9 c 2,40,-1
 1347 59 l 1,41,-1
 1293 113 l 2,42,43
 1270 136 1270 136 1265 167 c 1,44,-1
 1265 1170 l 1,45,-1
 1103 1170 l 1,46,-1
 1103 1326 l 1,47,-1
 1291 1326 l 1,48,-1
 1294 1366 l 2,49,50
 1299 1434 1299 1434 1260 1521 c 2,51,-1
 1219 1612 l 2,52,53
 1189 1678 1189 1678 1122.5 1722.5 c 128,-1,54
 1056 1767 1056 1767 984 1767 c 0,55,56
 953 1767 953 1767 925 1758 c 0,57,58
 777 1711 777 1711 785 1493 c 2,59,-1
 787 1440 l 2,60,61
 789 1395 789 1395 761 1395 c 0,62,63
 708 1394 708 1394 647 1498 c 0,64,65
 590 1595 590 1595 590 1654 c 0,66,67
 590 1743 590 1743 648 1829 c 0,68,69
 735 1957 735 1957 898 1957 c 0,70,71
 1083 1957 1083 1957 1195 1808 c 0,72,73
 1250 1734 1250 1734 1291 1643 c 0,74,75
 1326 1566 1326 1566 1386 1326 c 1,76,-1
 1590 1326 l 1,77,-1
 1590 1170 l 1,34,-1
EndSplineSet
Fore
SplineSet
1322.41015625 1325.27734375 m 5,0,-1
 1050.921875 1325.27734375 l 5,1,-1
 1029.71191406 1325.27734375 l 5,2,-1
 1004.25976562 1325.27734375 l 6,3,4
 966.08203125 1325.27734375 966.08203125 1325.27734375 953.35546875 1338.00390625 c 6,5,-1
 940.629882812 1350.73046875 l 5,6,-1
 932.145507812 1367.69824219 l 5,7,-1
 919.419921875 1388.90820312 l 6,8,9
 902.452148438 1414.36035156 902.452148438 1414.36035156 906.694335938 1431.328125 c 4,10,11
 906.694335938 1444.0546875 906.694335938 1444.0546875 915.177734375 1465.26464844 c 6,12,-1
 919.419921875 1482.23242188 l 5,13,-1
 923.662109375 1503.44238281 l 6,14,15
 923.662109375 1541.62011719 923.662109375 1541.62011719 893.967773438 1567.07226562 c 4,16,17
 860.032226562 1592.52441406 860.032226562 1592.52441406 800.64453125 1613.734375 c 4,18,19
 783.67578125 1617.97558594 783.67578125 1617.97558594 753.982421875 1626.45996094 c 4,20,21
 686.110351562 1643.42773438 686.110351562 1643.42773438 567.333984375 1651.91210938 c 6,22,-1
 563.091796875 1651.91210938 l 5,23,-1
 546.124023438 1651.91210938 l 6,24,25
 304.330078125 1664.63769531 304.330078125 1664.63769531 206.764648438 1745.23535156 c 4,26,27
 164.344726562 1783.4140625 164.344726562 1783.4140625 134.650390625 1821.59179688 c 4,28,29
 117.682617188 1851.28515625 117.682617188 1851.28515625 109.198242188 1885.22265625 c 4,30,31
 66.77734375 2042.17578125 66.77734375 2042.17578125 253.42578125 2131.2578125 c 5,32,-1
 304.330078125 2148.22558594 l 5,33,-1
 312.814453125 2152.46777344 l 5,34,35
 431.58984375 2182.16210938 431.58984375 2182.16210938 571.575195312 2169.43554688 c 4,36,37
 966.08203125 2143.984375 966.08203125 2143.984375 1233.328125 1851.28515625 c 4,38,39
 1250.29589844 1830.07519531 1250.29589844 1830.07519531 1267.26464844 1813.10742188 c 4,40,41
 1415.734375 1630.70214844 1415.734375 1630.70214844 1436.94433594 1444.0546875 c 5,42,-1
 1538.75195312 1444.0546875 l 5,43,-1
 1585.4140625 1435.5703125 l 5,44,-1
 1610.86523438 1401.63476562 l 5,45,-1
 1644.80175781 1325.27734375 l 5,46,-1
 1453.91210938 1325.27734375 l 5,47,-1
 1453.91210938 -19.435546875 l 5,48,-1
 1369.07226562 39.9521484375 l 5,49,-1
 1330.89453125 73.8876953125 l 5,50,-1
 1322.41015625 171.454101562 l 5,51,-1
 1322.41015625 404.764648438 l 5,52,-1
 1322.41015625 1325.27734375 l 5,0,-1
1335.13574219 1444.0546875 m 5,53,54
 1335.13574219 1511.92578125 1335.13574219 1511.92578125 1313.92578125 1596.765625 c 4,55,56
 1229.0859375 1893.70605469 1229.0859375 1893.70605469 881.2421875 2012.48242188 c 4,57,58
 792.16015625 2046.41796875 792.16015625 2046.41796875 694.594726562 2059.14453125 c 4,59,60
 686.110351562 2059.14453125 686.110351562 2059.14453125 677.625976562 2059.14453125 c 6,61,-1
 554.607421875 2063.38574219 l 6,62,63
 414.622070312 2059.14453125 414.622070312 2059.14453125 321.297851562 2008.24023438 c 4,64,65
 215.248046875 1944.61035156 215.248046875 1944.61035156 211.005859375 1847.04394531 c 4,66,67
 211.005859375 1800.38183594 211.005859375 1800.38183594 274.635742188 1783.4140625 c 6,68,-1
 372.202148438 1766.4453125 l 5,69,-1
 469.767578125 1762.20410156 l 6,70,71
 495.219726562 1762.20410156 495.219726562 1762.20410156 516.4296875 1762.20410156 c 4,72,73
 758.224609375 1749.47753906 758.224609375 1749.47753906 910.935546875 1622.21777344 c 4,74,75
 1016.98535156 1541.62011719 1016.98535156 1541.62011719 1029.71191406 1444.0546875 c 5,76,-1
 1335.13574219 1444.0546875 l 5,53,54
-51 1448.5 m 5,77,-1
 934.599609375 1448.5 l 5,78,-1
 1159 1448.5 l 5,79,-1
 1251.40039062 1439.70019531 l 5,80,-1
 1277.79980469 1404.5 l 5,81,-1
 1313 1325.29980469 l 5,82,-1
 1115 1325.29980469 l 5,83,-1
 1115 -69.5 l 5,84,-1
 1093 -56.2998046875 l 6,85,86
 1062.20019531 -38.7001953125 1062.20019531 -38.7001953125 1053.40039062 -21.099609375 c 6,87,-1
 1044.59960938 22.900390625 l 5,88,-1
 1044.59960938 36.099609375 l 5,89,-1
 1040.20019531 66.900390625 l 5,90,-1
 1005 220.900390625 l 6,91,92
 934.599609375 454.099609375 934.599609375 454.099609375 771.799804688 621.299804688 c 4,93,94
 648.599609375 735.700195312 648.599609375 735.700195312 516.599609375 744.5 c 5,95,96
 565 687.299804688 565 687.299804688 578.200195312 630.099609375 c 4,97,98
 582.599609375 590.5 582.599609375 590.5 578.200195312 550.900390625 c 4,99,100
 560.599609375 405.700195312 560.599609375 405.700195312 415.400390625 370.5 c 5,101,-1
 336.200195312 361.700195312 l 6,102,103
 265.799804688 366.099609375 265.799804688 366.099609375 213 405.700195312 c 4,104,105
 177.799804688 436.5 177.799804688 436.5 155.799804688 471.700195312 c 4,106,107
 120.599609375 533.299804688 120.599609375 533.299804688 125 616.900390625 c 4,108,109
 133.799804688 762.099609375 133.799804688 762.099609375 243.799804688 850.099609375 c 4,110,111
 340.599609375 933.700195312 340.599609375 933.700195312 463.799804688 924.900390625 c 4,112,113
 679.400390625 916.099609375 679.400390625 916.099609375 890.599609375 625.700195312 c 5,114,-1
 877.400390625 647.700195312 l 6,115,116
 881.799804688 634.5 881.799804688 634.5 890.599609375 625.700195312 c 6,117,-1
 908.200195312 594.900390625 l 6,118,119
 961 520.099609375 961 520.099609375 974.200195312 476.099609375 c 5,120,-1
 978.599609375 476.099609375 l 5,121,-1
 978.599609375 1325.29980469 l 5,122,-1
 287.799804688 1325.29980469 l 5,123,-1
 98.599609375 1325.29980469 l 5,124,-1
 10.599609375 1329.70019531 l 5,125,-1
 -15.7998046875 1369.29980469 l 5,126,-1
 -51 1448.5 l 5,77,-1
EndSplineSet
EndChar

StartChar: p
Encoding: 112 112 83
Width: 1582
VWidth: 575
Flags: W
LayerCount: 2
Back
SplineSet
1296 1169 m 1,0,-1
 1184 1169 l 1,1,-1
 1184 71 l 2,2,3
 1184 -6 1184 -6 1161 -6 c 0,4,5
 1142 -6 1142 -6 1104 25 c 2,6,-1
 1047 72 l 2,7,8
 980 128 980 128 981 232 c 2,9,-1
 982 305 l 1,10,-1
 991 370 l 1,11,-1
 989 404 l 2,12,13
 987 432 987 432 981 454 c 1,14,-1
 912 439 l 1,15,-1
 864 436 l 1,16,-1
 821 436 l 2,17,18
 733 436 733 436 669 468 c 0,19,20
 643 481 643 481 553 552 c 0,21,22
 475 613 475 613 453 637 c 0,23,24
 404 688 404 688 389 749 c 1,25,-1
 389 1169 l 1,26,-1
 286 1169 l 1,27,-1
 286 1325 l 1,28,-1
 1296 1325 l 1,29,-1
 1296 1169 l 1,0,-1
1005 716 m 1,30,-1
 1005 1170 l 1,31,-1
 565 1170 l 1,32,-1
 565 689 l 1,33,34
 571 639 571 639 601 614 c 1,35,36
 635 592 635 592 685 592 c 1,37,-1
 746 598 l 1,38,-1
 807 614 l 2,39,40
 873 631 873 631 907 648 c 0,41,42
 960 674 960 674 1005 716 c 1,30,-1
EndSplineSet
Fore
SplineSet
1007 1561 m 1,0,-1
 1131 1445 l 1,1,-1
 1255 1433 l 1,2,-1
 1275 1401 l 1,3,-1
 1311 1325 l 1,4,-1
 1131 1325 l 1,5,-1
 1131 57 l 1,6,-1
 1051 113 l 1,7,-1
 1011 149 l 1,8,-1
 1007 213 l 1,9,-1
 1007 341 l 1,10,-1
 1007 677 l 1,11,-1
 1007 849 l 1,12,-1
 975 913 l 1,13,-1
 895 1025 l 1,14,-1
 891 1025 l 1,15,-1
 791 925 l 1,16,-1
 567 705 l 1,17,-1
 483 621 l 1,18,-1
 439 589 l 1,19,-1
 379 601 l 1,20,-1
 259 633 l 1,21,-1
 299 685 l 1,22,-1
 331 725 l 2,23,24
 391 801 391 801 403 857 c 0,25,26
 411 905 411 905 387 945 c 0,27,28
 347 1001 347 1001 251 969 c 1,29,-1
 251 969 l 1,30,-1
 227 961 l 1,31,-1
 155 941 l 1,32,-1
 131 941 l 2,33,34
 63 949 63 949 43 1005 c 2,35,-1
 39 1057 l 1,36,-1
 55 1129 l 2,37,38
 111 1321 111 1321 335 1373 c 2,39,-1
 387 1385 l 1,40,-1
 419 1389 l 2,41,42
 663 1405 663 1405 875 1193 c 2,43,-1
 879 1189 l 1,44,-1
 899 1165 l 1,45,-1
 915 1145 l 2,46,47
 983 1061 983 1061 1003 1001 c 1,48,-1
 1007 1001 l 1,49,-1
 1007 1561 l 1,0,-1
459 841 m 1,50,-1
 639 1017 l 1,51,-1
 767 1145 l 1,52,-1
 659 1213 l 2,53,54
 579 1253 579 1253 495 1261 c 0,55,56
 355 1273 355 1273 291 1181 c 0,57,58
 275 1157 275 1157 267 1105 c 1,59,60
 399 1097 399 1097 447 925 c 0,61,62
 447 917 447 917 451 909 c 2,63,-1
 459 841 l 1,50,-1
EndSplineSet
EndChar

StartChar: q
Encoding: 113 113 84
Width: 0
Flags: W
LayerCount: 2
Fore
SplineSet
1501 3625 m 2,1,-1
 1501 3319 l 1,2,-1
 1492 3310 l 1,3,4
 1016 3310 1016 3310 727 3175 c 1,5,6
 499 3063 499 3063 394 2761 c 1,7,8
 365 2500 365 2500 349 2500 c 2,9,-1
 205 2500 l 1,10,-1
 196 2509 l 1,11,12
 196 2811 196 2811 394 3094 c 1,13,14
 851 3643 851 3643 1474 3643 c 0,15,0
 1501 3643 1501 3643 1501 3625 c 2,1,-1
EndSplineSet
Validated: 1
EndChar

StartChar: r
Encoding: 114 114 85
Width: 1582
VWidth: 575
Flags: WO
LayerCount: 2
Back
SplineSet
955 1488 m 2,0,1
 1002 1432 1002 1432 1002 1398 c 0,2,3
 1002 1381 1002 1381 985 1378 c 0,4,5
 952 1378 952 1378 910 1432 c 2,6,-1
 769 1612 l 2,7,8
 739 1650 739 1650 683 1683 c 0,9,10
 652 1697 652 1697 623 1697 c 1,11,-1
 580 1691 l 1,12,-1
 536 1684 l 1,13,-1
 508 1679 l 1,14,-1
 479 1677 l 2,15,16
 432 1674 432 1674 358 1776 c 2,17,-1
 324 1823 l 2,18,19
 297 1860 297 1860 297 1876 c 0,20,21
 296 1906 296 1906 368 1906 c 0,22,23
 606 1906 606 1906 789 1687 c 2,24,-1
 955 1488 l 2,0,1
1286 1169 m 1,25,-1
 1018 1169 l 1,26,27
 1018 1139 1018 1139 1020 1108 c 0,28,29
 1022 1086 1022 1086 1026 1028 c 2,30,-1
 1035 889 l 2,31,32
 1037 858 1037 858 1037 839 c 0,33,34
 1037 646 1037 646 941 507 c 0,35,36
 902 450 902 450 902 402 c 0,37,38
 902 363 902 363 927 336 c 0,39,40
 1002 253 1002 253 1074 204 c 2,41,-1
 1233 95 l 2,42,43
 1286 59 1286 59 1286 -1 c 0,44,45
 1286 -50 1286 -50 1245 -50 c 0,46,47
 1219 -50 1219 -50 1189 -25 c 2,48,-1
 1012 122 l 1,49,-1
 839 274 l 2,50,51
 768 336 768 336 677 448 c 0,52,53
 666 461 666 461 631 510 c 0,54,55
 594 556 594 556 532 656 c 0,56,57
 524 673 524 673 519 689 c 2,58,-1
 510 747 l 1,59,60
 510 859 510 859 596 859 c 0,61,62
 624 859 624 859 681 833.5 c 128,-1,63
 738 808 738 808 767 808 c 0,64,65
 791 808 791 808 806 816 c 1,66,67
 849 879 849 879 849 994 c 0,68,69
 849 1061 849 1061 839 1115 c 0,70,71
 837 1144 837 1144 829 1169 c 1,72,-1
 451 1169 l 1,73,-1
 451 1325 l 1,74,-1
 1286 1325 l 1,75,-1
 1286 1169 l 1,25,-1
EndSplineSet
Fore
SplineSet
-16.9716796875 1448.24804688 m 1,0,-1
 479.978515625 1448.24804688 l 1,1,-1
 610.9921875 1448.24804688 l 1,2,-1
 669.723632812 1439.21289062 l 1,3,-1
 696.829101562 1403.0703125 l 1,4,-1
 732.971679688 1321.75195312 l 1,5,-1
 701.346679688 1321.75195312 l 1,6,-1
 669.723632812 1321.75195312 l 1,7,-1
 606.473632812 1317.234375 l 1,8,-1
 520.637695312 1272.05664062 l 2,9,10
 430.283203125 1213.32714844 430.283203125 1213.32714844 353.481445312 1122.97265625 c 0,11,12
 213.43359375 946.780273438 213.43359375 946.780273438 190.844726562 707.341796875 c 1,13,-1
 195.362304688 544.704101562 l 2,14,15
 204.396484375 314.299804688 204.396484375 314.299804688 303.788085938 165.21484375 c 1,16,17
 330.893554688 210.391601562 330.893554688 210.391601562 367.034179688 242.016601562 c 2,18,-1
 430.283203125 269.123046875 l 1,19,20
 565.814453125 305.264648438 565.814453125 305.264648438 642.6171875 187.803710938 c 0,21,22
 692.311523438 111.002929688 692.311523438 111.002929688 665.205078125 25.1650390625 c 2,23,-1
 656.169921875 2.5771484375 l 2,24,25
 642.6171875 -24.529296875 642.6171875 -24.529296875 624.545898438 -42.6005859375 c 0,26,27
 556.780273438 -119.401367188 556.780273438 -119.401367188 443.836914062 -105.848632812 c 0,28,29
 344.446289062 -96.8125 344.446289062 -96.8125 267.645507812 -29.046875 c 0,30,31
 199.879882812 34.2021484375 199.879882812 34.2021484375 154.703125 156.180664062 c 2,32,-1
 136.631835938 214.911132812 l 2,33,34
 100.489257812 359.4765625 100.489257812 359.4765625 91.4541015625 535.66796875 c 0,35,36
 77.9013671875 811.25 77.9013671875 811.25 141.149414062 1010.02929688 c 0,37,38
 186.327148438 1141.04296875 186.327148438 1141.04296875 303.788085938 1321.75195312 c 1,39,-1
 123.079101562 1321.75195312 l 1,40,-1
 46.2763671875 1330.78808594 l 1,41,-1
 19.1708984375 1366.9296875 l 1,42,-1
 -16.9716796875 1448.24804688 l 1,0,-1
481.461914062 1448.62304688 m 1,43,-1
 1250.53027344 1448.62304688 l 1,44,-1
 1463.90625 1448.62304688 l 1,45,-1
 1548.3671875 1439.73242188 l 1,46,-1
 1575.0390625 1404.16992188 l 1,47,-1
 1610.60351562 1324.15429688 l 1,48,-1
 1410.5625 1324.15429688 l 1,49,-1
 1410.5625 -85.0185546875 l 1,50,-1
 1392.78027344 -76.1279296875 l 2,51,52
 1353.33886719 -56.171875 1353.33886719 -56.171875 1348.32714844 -36.119140625 c 2,53,-1
 1343.8828125 -18.337890625 l 1,54,-1
 1339.4375 -0.5576171875 l 1,55,-1
 1334.99121094 17.224609375 l 1,56,-1
 1308.3203125 106.131835938 l 2,57,58
 1281 197 1281 197 1179.40429688 301.725585938 c 0,59,60
 1028 457 1028 457 814.885742188 559.555664062 c 1,61,-1
 663.745117188 612.899414062 l 1,62,-1
 632.627929688 621.790039062 l 1,63,-1
 628.182617188 621.790039062 l 1,64,-1
 623.737304688 621.790039062 l 1,65,-1
 619.291992188 626.235351562 l 1,66,-1
 574.837890625 639.572265625 l 1,67,-1
 548.166015625 675.133789062 l 1,68,-1
 530.385742188 697.361328125 l 1,69,-1
 508.159179688 732.923828125 l 1,70,-1
 463.705078125 808.494140625 l 1,71,72
 819.40234375 1038.25976562 819.40234375 1038.25976562 943.801757812 1088.54980469 c 2,73,-1
 1152.73339844 1173.01269531 l 1,74,-1
 1188.29589844 1186.34960938 l 1,75,-1
 1206.07617188 1190.79394531 l 1,76,-1
 1259.41992188 1213.02050781 l 2,77,78
 1277.20214844 1220.08007812 1277.20214844 1220.08007812 1277.20214844 1275.25488281 c 2,79,-1
 1277.20214844 1279.70019531 l 1,80,-1
 1277.20214844 1284.14550781 l 1,81,-1
 1277.20214844 1288.58984375 l 1,82,-1
 1272.75585938 1297.48242188 l 1,83,-1
 1272.75585938 1324.15429688 l 1,84,-1
 788.190429688 1324.15429688 l 1,85,-1
 619.268554688 1324.15429688 l 1,86,-1
 543.698242188 1328.59960938 l 1,87,-1
 517.025390625 1368.60742188 l 1,88,-1
 481.461914062 1448.62304688 l 1,43,-1
708.19921875 759.595703125 m 1,89,90
 779.32421875 746.259765625 779.32421875 746.259765625 881.56640625 675.133789062 c 0,91,92
 979.364257812 617.344726562 979.364257812 617.344726562 1077.16113281 523.9921875 c 256,93,94
 1174.95996094 430.640625 1174.95996094 430.640625 1272.75585938 301.725585938 c 1,95,-1
 1272.75585938 1039.65234375 l 1,96,97
 1054.93554688 964.08203125 1054.93554688 964.08203125 868.232421875 857.393554688 c 2,98,-1
 814.885742188 830.720703125 l 1,99,-1
 752.65234375 795.159179688 l 1,100,-1
 708.19921875 759.595703125 l 1,89,90
837.088867188 346.178710938 m 2,101,-1
 863.76171875 350.625 l 1,102,-1
 894.87890625 346.178710938 l 2,103,104
 988 333 988 333 992.67578125 221.709960938 c 0,105,106
 997 115.002929688 997 115.002929688 890.432617188 97.2412109375 c 2,107,-1
 863.76171875 92.7958984375 l 1,108,-1
 832.645507812 97.2412109375 l 2,109,110
 740 110 740 110 734.845703125 221.709960938 c 0,111,112
 730 328 730 328 837.088867188 346.178710938 c 2,101,-1
EndSplineSet
EndChar

StartChar: s
Encoding: 115 115 86
Width: 1582
VWidth: 575
Flags: W
LayerCount: 2
Back
SplineSet
1428 1170 m 1,0,-1
 1321 1170 l 1,1,-1
 1322 54 l 2,2,3
 1322 37 1322 37 1318 22 c 1,4,5
 1318 6 1318 6 1305 4 c 0,6,7
 1284 4 1284 4 1242 52 c 1,8,9
 1205 85 1205 85 1193 99 c 0,10,11
 1140 157 1140 157 1141 257 c 2,12,-1
 1144 582 l 1,13,14
 1066 559 1066 559 1009 561 c 2,15,-1
 930 564 l 2,16,17
 837 568 837 568 796 586 c 0,18,19
 774 596 774 596 716 651 c 0,20,21
 695 671 695 671 673 680 c 1,22,-1
 623 688 l 1,23,24
 610 645 610 645 589 609 c 2,25,-1
 523 494 l 1,26,-1
 502 454 l 1,27,-1
 496 420 l 1,28,29
 496 370 496 370 599 272 c 1,30,-1
 716 181 l 2,31,32
 821 99 821 99 830 24 c 0,33,34
 830 -3 830 -3 800 -3 c 0,35,36
 756 -3 756 -3 713 36 c 0,37,38
 597 140 597 140 530 222 c 2,39,-1
 375 411 l 2,40,41
 205 618 205 618 205 756 c 0,42,43
 205 866 205 866 276 866 c 1,44,45
 316 861 316 861 348 841 c 1,46,47
 386 824 386 824 409 816 c 1,48,49
 441 816 441 816 468 864 c 0,50,51
 482 897 482 897 485 920 c 2,52,-1
 485 1170 l 1,53,-1
 154 1170 l 1,54,-1
 154 1325 l 1,55,-1
 1428 1325 l 1,56,-1
 1428 1170 l 1,0,-1
1144 1170 m 1,57,-1
 652 1170 l 1,58,-1
 652 756 l 1,59,60
 675 733 675 733 742 731 c 2,61,-1
 883 727 l 2,62,63
 1049 722 1049 722 1144 781 c 1,64,-1
 1144 1170 l 1,57,-1
EndSplineSet
Fore
SplineSet
58 1437.5 m 1,0,-1
 1078 1437.5 l 1,1,-1
 1306 1437.5 l 1,2,-1
 1394 1429.5 l 1,3,-1
 1418 1397.5 l 1,4,-1
 1450 1325.5 l 1,5,-1
 1270 1325.5 l 1,6,-1
 1270 57.5 l 1,7,-1
 1230 85.5 l 1,8,-1
 1190 113.5 l 1,9,-1
 1178 125.5 l 1,10,-1
 1174 125.5 l 1,11,-1
 1150 149.5 l 1,12,-1
 1146 173.5 l 1,13,-1
 1146 189.5 l 1,14,-1
 1146 201.5 l 1,15,-1
 1146 293.5 l 1,16,-1
 1146 621.5 l 1,17,-1
 1146 709.5 l 1,18,-1
 1142 765.5 l 1,19,20
 1122 817.5 1122 817.5 1086 845.5 c 2,21,-1
 1078 853.5 l 1,22,-1
 1070 857.5 l 1,23,-1
 1026 881.5 l 1,24,-1
 982 889.5 l 1,25,-1
 938 881.5 l 2,26,27
 906 877.5 906 877.5 866 833.5 c 0,28,29
 806 773.5 806 773.5 726 665.5 c 2,30,-1
 714 649.5 l 1,31,-1
 630 545.5 l 1,32,-1
 606 517.5 l 2,33,34
 546 457.5 546 457.5 498 457.5 c 2,35,-1
 470 465.5 l 1,36,-1
 442 485.5 l 1,37,-1
 430 493.5 l 1,38,-1
 310 609.5 l 1,39,-1
 274 645.5 l 2,40,41
 226 697.5 226 697.5 206 745.5 c 1,42,-1
 266 773.5 l 1,43,44
 306 721.5 306 721.5 366 677.5 c 2,45,-1
 382 665.5 l 1,46,-1
 422 645.5 l 1,47,-1
 470 661.5 l 2,48,49
 506 677.5 506 677.5 554 725.5 c 2,50,-1
 646 821.5 l 1,51,-1
 658 837.5 l 1,52,-1
 682 873.5 l 1,53,-1
 686 893.5 l 1,54,-1
 682 917.5 l 1,55,-1
 654 1013.5 l 1,56,57
 586 1149.5 586 1149.5 446 1189.5 c 1,58,-1
 382 1197.5 l 1,59,-1
 294 1213.5 l 2,60,61
 238 1233.5 238 1233.5 202 1273.5 c 2,62,-1
 190 1293.5 l 1,63,-1
 174 1313.5 l 1,64,-1
 146 1325.5 l 1,65,-1
 142 1325.5 l 1,66,-1
 126 1329.5 l 1,67,-1
 114 1333.5 l 1,68,-1
 94 1357.5 l 1,69,-1
 90 1365.5 l 1,70,-1
 74 1401.5 l 1,71,-1
 58 1437.5 l 1,0,-1
590 1325.5 m 1,72,73
 682 1205.5 682 1205.5 726 1065.5 c 2,74,-1
 734 1029.5 l 1,75,-1
 742 977.5 l 1,76,-1
 750 933.5 l 1,77,-1
 790 981.5 l 1,78,-1
 794 985.5 l 1,79,-1
 810 1001.5 l 2,80,81
 914 1097.5 914 1097.5 1002 1069.5 c 2,82,-1
 1042 1049.5 l 2,83,84
 1066 1033.5 1066 1033.5 1094 1001.5 c 2,85,-1
 1142 921.5 l 1,86,-1
 1146 921.5 l 1,87,-1
 1146 1325.5 l 1,88,-1
 590 1325.5 l 1,72,73
EndSplineSet
EndChar

StartChar: u
Encoding: 117 117 88
Width: 2
Flags: W
LayerCount: 2
Fore
SplineSet
-643 2303 m 1,0,-1
 -707 2225 l 1,1,-1
 -759 2167 l 1,2,3
 -781 2155 -781 2155 -793 2155 c 0,4,5
 -809 2155 -809 2155 -877 2235 c 2,6,-1
 -940 2307 l 1,7,-1
 -940 2344 l 1,8,-1
 -865 2446 l 2,9,10
 -837 2484 -837 2484 -809 2500 c 1,11,12
 -781 2500 -781 2500 -643 2344 c 1,13,-1
 -641 2323 l 1,14,-1
 -643 2303 l 1,0,-1
EndSplineSet
Validated: 1
EndChar

StartChar: w
Encoding: 119 119 90
Width: 0
Flags: W
LayerCount: 2
Fore
SplineSet
-43 3643 m 1,0,-1
 1550 3643 l 1,1,-1
 1568 3625 l 1,2,-1
 1568 3328 l 1,3,-1
 1550 3310 l 1,4,-1
 -43 3310 l 1,5,-1
 -61 3328 l 1,6,-1
 -61 3625 l 1,7,-1
 -43 3643 l 1,0,-1
EndSplineSet
Validated: 1
EndChar

StartChar: x
Encoding: 120 120 91
Width: 1582
Flags: W
LayerCount: 2
Fore
SplineSet
341 892 m 1,0,-1
 425 972 l 1,1,-1
 792 605 l 1,2,-1
 1158 972 l 1,3,-1
 1242 892 l 1,4,-1
 871 523 l 1,5,-1
 1242 155 l 1,6,-1
 1158 75 l 1,7,-1
 792 441 l 1,8,-1
 425 75 l 1,9,-1
 341 155 l 1,10,-1
 710 523 l 1,11,-1
 341 892 l 1,0,-1
EndSplineSet
Validated: 1
EndChar

StartChar: bar
Encoding: 124 124 95
Width: 1582
Flags: W
LayerCount: 2
Fore
SplineSet
879 -3 m 1,0,-1
 703 184 l 1,1,-1
 703 1397 l 1,2,-1
 879 1231 l 1,3,-1
 879 -3 l 1,0,-1
EndSplineSet
Validated: 1
EndChar

StartChar: asciitilde
Encoding: 126 126 97
Width: 8
Flags: W
LayerCount: 2
Fore
SplineSet
12022 -2000 m 1,0,-1
 12258 -2000 l 1,1,2
 11773 -2273 11773 -2273 11123 -2456 c 0,3,4
 10198 -2717 10198 -2717 8941.5 -2858.5 c 128,-1,5
 7685 -3000 7685 -3000 6333 -3000 c 0,6,7
 4356 -3000 4356 -3000 2727 -2722.5 c 128,-1,8
 1098 -2445 1098 -2445 396 -2000 c 1,9,-1
 664 -2000 l 1,10,11
 1098 -2222 1098 -2222 1850.5 -2365.5 c 128,-1,12
 2603 -2509 2603 -2509 3757 -2579.5 c 128,-1,13
 4911 -2650 4911 -2650 6168 -2650 c 0,14,15
 7532 -2650 7532 -2650 8648 -2590 c 0,16,17
 9528 -2543 9528 -2543 10060.5 -2476 c 128,-1,18
 10593 -2409 10593 -2409 11084.5 -2295.5 c 128,-1,19
 11576 -2182 11576 -2182 12022 -2000 c 1,0,-1
EndSplineSet
Validated: 1
EndChar

StartChar: quoteright
Encoding: 8217 8217 182
Width: 1582
Flags: W
LayerCount: 2
Fore
SplineSet
464 849 m 1,0,-1
 809 905 l 1,1,-1
 665 419 l 1,2,3
 840 718 840 718 983 837 c 0,4,5
 1064 905 1064 905 1115 905 c 0,6,7
 1148 905 1148 905 1167 885.5 c 128,-1,8
 1186 866 1186 866 1186 829 c 0,9,10
 1186 763 1186 763 1152 703 c 0,11,12
 1128 658 1128 658 1083 658 c 0,13,14
 1060 658 1060 658 1043.5 673 c 128,-1,15
 1027 688 1027 688 1023 719 c 0,16,17
 1021 738 1021 738 1014 744 c 0,18,19
 1006 752 1006 752 995 752 c 0,20,21
 978 752 978 752 963 744 c 0,22,23
 937 730 937 730 884 666 c 0,24,25
 801 568 801 568 704 412 c 0,26,27
 662 346 662 346 632 263 c 0,28,29
 590 149 590 149 584 126 c 2,30,-1
 552 0 l 1,31,-1
 399 0 l 1,32,-1
 584 621 l 2,33,34
 616 729 616 729 616 775 c 0,35,36
 616 793 616 793 601 805 c 0,37,38
 581 821 581 821 548 821 c 0,39,40
 527 821 527 821 471 812 c 1,41,-1
 464 849 l 1,0,-1
EndSplineSet
EndChar

